<?xml version="1.0" encoding="UTF-8" standalone="no"?>
<!-- Created with Inkscape (http://www.inkscape.org/) -->

<svg
   xmlns:dc="http://purl.org/dc/elements/1.1/"
   xmlns:cc="http://creativecommons.org/ns#"
   xmlns:rdf="http://www.w3.org/1999/02/22-rdf-syntax-ns#"
   xmlns:svg="http://www.w3.org/2000/svg"
   xmlns="http://www.w3.org/2000/svg"
   xmlns:sodipodi="http://sodipodi.sourceforge.net/DTD/sodipodi-0.dtd"
   xmlns:inkscape="http://www.inkscape.org/namespaces/inkscape"
   width="4322.8345"
   height="2161.4172"
   id="svg2"
   version="1.1"
   inkscape:version="0.48.5 r10040"
   sodipodi:docname="signiature plate.svg">
  <defs
     id="defs4">
    <clipPath
       id="clipPath3069"
       clipPathUnits="userSpaceOnUse">
      <path
         id="path3071"
         d="M 0,612 792,612 792,0 0,0 0,612 z" />
    </clipPath>
    <clipPath
       id="clipPath4319"
       clipPathUnits="userSpaceOnUse">
      <path
         id="path4321"
         d="M 0,792 1224,792 1224,0 0,0 0,792 z" />
    </clipPath>
    <symbol
       id="*Paper_Space0" />
    <symbol
       id="*Paper_Space" />
    <symbol
       id="*Model_Space" />
    <pattern
       y="0"
       x="0"
       width="8"
       patternUnits="userSpaceOnUse"
       id="Hatch"
       height="8">
      <path
         id="path4417"
         stroke-width="0.25"
         stroke="#000000"
         linecap="square"
         d="M8 4 l-4,4" />
      <path
         id="path4419"
         stroke-width="0.25"
         stroke="#000000"
         linecap="square"
         d="M6 2 l-4,4" />
      <path
         id="path4421"
         stroke-width="0.25"
         stroke="#000000"
         linecap="square"
         d="M4 0 l-4,4" />
    </pattern>
    <marker
       style="overflow:visible"
       refY="0.0"
       refX="0.0"
       orient="auto"
       id="DistanceX">
      <path
         id="path4414"
         style="stroke:#000000; stroke-width:0.5"
         d="M 3,-3 L -3,3 M 0,-5 L  0,5" />
    </marker>
    <clipPath
       id="clipPath9223"
       clipPathUnits="userSpaceOnUse">
      <path
         id="path9225"
         d="m 0,1729.13 3458.27,0 L 3458.27,0 0,0 0,1729.13 z" />
    </clipPath>
    <clipPath
       id="clipPath9179"
       clipPathUnits="userSpaceOnUse">
      <path
         id="path9181"
         d="m 0,1729.13 3458.27,0 L 3458.27,0 0,0 0,1729.13 z" />
    </clipPath>
  </defs>
  <sodipodi:namedview
     id="base"
     pagecolor="#ffffff"
     bordercolor="#666666"
     borderopacity="1.0"
     inkscape:pageopacity="0.0"
     inkscape:pageshadow="2"
     inkscape:zoom="0.12374369"
     inkscape:cx="2637.7985"
     inkscape:cy="915.93898"
     inkscape:document-units="mm"
     inkscape:current-layer="text9215"
     showgrid="false"
     units="mm"
     inkscape:window-width="1370"
     inkscape:window-height="677"
     inkscape:window-x="209"
     inkscape:window-y="116"
     inkscape:window-maximized="0" />
  <metadata
     id="metadata7">
    <rdf:RDF>
      <cc:Work
         rdf:about="">
        <dc:format>image/svg+xml</dc:format>
        <dc:type
           rdf:resource="http://purl.org/dc/dcmitype/StillImage" />
        <dc:title></dc:title>
      </cc:Work>
    </rdf:RDF>
  </metadata>
  <g
     inkscape:label="Layer 1"
     inkscape:groupmode="layer"
     id="layer1"
     transform="translate(0,1109.0551)">
    <path
       id="path9185"
       style="fill:none;stroke:#000000;stroke-width:1.65556455"
       d="m 2565.0435,-427.48595 c 23.0058,0 -11.0555,-98.03707 -84.1684,-76.78679 -55.5365,16.14728 -82.2161,69.29827 -82.2161,102.18359 0,32.88532 3.8371,102.93189 -69.2927,120.96958 -176.1741,43.45701 -183.1225,-77.51257 -354.6944,-77.51257 -231.3731,0 -641.8967,191.05553 -657.1269,328.853174 -12.3326,111.573777 123.7715,247.064666 280.704,216.694266 122.8824,-23.7877 142.113,-137.713241 112.1363,-159.301091 -43.1531,-31.079301 -91.7638,11.156817 -87.336,25.616236 12.9292,42.219231 104.0966,-27.365985 60.347,50.883625 -28.3787,50.75984 -81.0571,63.45826 -140.9539,57.58446 -59.9025,-5.86815 -151.492,-70.50791 -147.9643,-137.448809 3.5221,-66.946511 94.6558,-113.21663 166.3114,-126.410151 122.7588,-22.60619 135.5303,12.186431 172.9673,125.380556 10.7179,32.412709 8.0735,51.671296 12.7715,67.458494 3.2126,10.78549 43.6201,6.925906 64.9998,6.053837 6.2563,-0.253185 4.5572,-5.862536 4.1465,-12.113286 -1.5077,-22.971885 -29.2057,-12.478967 -31.2705,-13.390421 -15.0784,-6.661462 -10.4254,-107.303464 7.0496,-131.248709 23.7822,-32.59275 305.9376,-30.89363 318.8723,-14.97703 11.4494,14.09371 37.4539,141.949796 50.501,165.675609 5.1367,9.33955 49.4602,7.454759 78.9867,6.976533 5.7893,-0.09569 3.1338,-9.142624 1.761,-17.621349 -4.4672,-27.574156 -31.3832,-11.072432 -34.922,-16.355455 -15.2865,-22.842503 -11.3482,-152.605888 28.7557,-158.935388 32.3563,-5.108611 57.5506,-12.040131 104.5297,-37.875781 46.9789,-25.84128 118.6233,-93.95805 128.0192,-130.37102 9.3958,-36.40734 -6.7233,-110.02656 9.3958,-136.8243 16.7437,-27.84984 23.9565,-16.86744 54.5182,-6.5208 9.0752,3.07192 -12.5127,-33.81365 0.096,-32.2383 9.3958,1.17588 20.8452,11.60129 33.0766,11.60129"
       inkscape:connector-curvature="0" />
    <g
       id="g9187"
       transform="matrix(5.6262305,0,0,-5.6262305,2540.3472,-430.26756)"
       style="stroke:#000000">
      <path
         inkscape:connector-curvature="0"
         d="m 0,0 4.878,-13.025 1.682,3.457 5.847,-19.667 0.983,5.838 8.207,-21.928 0.25,6.545 8.513,-21.042 1.754,5.803 8.968,-21.206 2.357,20.443"
         style="fill:none;stroke:#000000;stroke-width:1;stroke-linecap:butt;stroke-linejoin:miter;stroke-miterlimit:10;stroke-opacity:1;stroke-dasharray:none"
         id="path9189" />
    </g>
    <g
       id="g9191"
       transform="matrix(5.6262305,0,0,-5.6262305,2715.5249,77.086783)"
       style="stroke:#000000">
      <path
         inkscape:connector-curvature="0"
         d="M 0,0 C -7.658,-3.533 -15.316,-7.066 -22.974,-10.599"
         style="fill:none;stroke:#000000;stroke-width:1;stroke-linecap:butt;stroke-linejoin:miter;stroke-miterlimit:10;stroke-opacity:1;stroke-dasharray:none"
         id="path9193" />
    </g>
    <g
       id="g9195"
       transform="matrix(5.6262305,0,0,-5.6262305,2803.4212,77.086783)"
       style="stroke:#000000">
      <path
         inkscape:connector-curvature="0"
         d="M 0,0 C 8.037,-4.665 16.074,-9.329 24.111,-13.994"
         style="fill:none;stroke:#000000;stroke-width:1;stroke-linecap:butt;stroke-linejoin:miter;stroke-miterlimit:10;stroke-opacity:1;stroke-dasharray:none"
         id="path9197" />
    </g>
    <g
       id="g9199"
       transform="matrix(5.6262305,0,0,-5.6262305,2804.4041,35.063339)"
       style="stroke:#000000">
      <path
         inkscape:connector-curvature="0"
         d="M 0,0 C 7.921,3.675 15.841,7.35 23.761,11.024"
         style="fill:none;stroke:#000000;stroke-width:1;stroke-linecap:butt;stroke-linejoin:miter;stroke-miterlimit:10;stroke-opacity:1;stroke-dasharray:none"
         id="path9201" />
    </g>
    <g
       id="g9203"
       transform="matrix(5.6262305,0,0,-5.6262305,2540.3472,-430.26756)"
       style="stroke:#000000">
      <path
         inkscape:connector-curvature="0"
         d="m 0,0 2.74,-13.767 2.296,3.132 2.596,-20.52 1.991,5.615 4.608,-23.176 1.367,6.444 5.069,-22.35 2.768,5.445 5.687,-21.526 c -6.25,3.579 -12.5,7.158 -18.75,10.737"
         style="fill:none;stroke:#000000;stroke-width:1;stroke-linecap:butt;stroke-linejoin:miter;stroke-miterlimit:10;stroke-opacity:1;stroke-dasharray:none"
         id="path9205" />
    </g>
    <g
       id="g9207"
       transform="matrix(5.6262305,0,0,-5.6262305,2760.9493,97.665848)"
       style="stroke:#000000">
      <path
         inkscape:connector-curvature="0"
         d="M 0,0 C -0.996,-8.616 -1.992,-17.232 -2.988,-25.848"
         style="fill:none;stroke:#000000;stroke-width:1;stroke-linecap:butt;stroke-linejoin:miter;stroke-miterlimit:10;stroke-opacity:1;stroke-dasharray:none"
         id="path9209" />
    </g>
    <g
       transform="matrix(1.7963826,0,0,1.5257853,-1473.7123,-268.95149)"
       style="font-size:37.58373642px;fill:none;stroke:#000000"
       id="text9211">
      <path
         d="m 1579.3551,330.51003 0,118.26819 64.844,0 0,14.59733 -81.0301,0 0,-132.86552 16.1861,0"
         style="font-size:203.36964417px;font-variant:normal;font-weight:normal;font-stretch:normal;writing-mode:lr-tb;stroke:#000000;font-family:Corbel;-inkscape-font-specification:Corbel"
         id="path9350"
         inkscape:connector-curvature="0" />
      <path
         d="m 1722.2484,452.94888 -0.3972,0 c -1.2579,1.58884 -2.8467,3.17766 -4.7665,4.76648 -1.9199,1.52263 -4.1376,2.91285 -6.6532,4.17067 -2.5157,1.19161 -5.263,2.15153 -8.242,2.87974 -2.9791,0.72821 -6.1568,1.09232 -9.533,1.09232 -4.5679,0 -8.7716,-0.69511 -12.6113,-2.08533 -3.7735,-1.32402 -7.0504,-3.27695 -9.8308,-5.8588 -2.7143,-2.64803 -4.8327,-5.85878 -6.3553,-9.63225 -1.5227,-3.77344 -2.284,-8.04341 -2.284,-12.80991 0,-4.70024 0.8275,-8.904 2.4826,-12.6113 1.7212,-3.70721 4.1044,-6.85176 7.1497,-9.43365 3.0452,-2.58179 6.6863,-4.56782 10.9232,-5.95809 4.303,-1.39017 9.0364,-2.08528 14.2001,-2.08534 4.8988,0.0663 9.4336,0.49657 13.6043,1.29092 4.1706,0.79447 7.8779,1.78749 11.1218,2.97905 l 0.3972,0 0,-6.5539 c -10e-5,-2.58178 -0.1656,-4.86571 -0.4965,-6.85181 -0.3311,-1.98596 -0.8938,-3.74029 -1.6881,-5.26299 -1.7213,-3.17757 -4.4687,-5.79251 -8.2421,-7.84482 -3.7735,-2.11835 -8.871,-3.17757 -15.2924,-3.17765 -4.7665,8e-5 -9.2682,0.46349 -13.505,1.39022 -4.1707,0.8607 -8.3414,2.08541 -12.512,3.67416 l 0,-12.90921 c 1.5888,-0.79432 3.4424,-1.52253 5.5608,-2.18463 2.1847,-0.72812 4.4686,-1.32393 6.8519,-1.78743 2.3832,-0.52951 4.8988,-0.92672 7.5469,-1.19162 2.648,-0.26471 5.296,-0.39711 7.9441,-0.39721 9.5329,10e-5 17.3115,1.68823 23.3359,5.06439 6.0904,3.37634 10.4597,7.8449 13.1078,13.40571 0.9929,2.11851 1.688,4.46864 2.0853,7.05041 0.4633,2.51571 0.695,5.29615 0.6951,8.34134 l 0,62.9572 -12.9092,0 -1.6881,-10.42667 m -0.7944,-30.98209 c -2.8467,-0.79437 -6.223,-1.55568 -10.1288,-2.28394 -3.9059,-0.72816 -8.209,-1.12537 -12.9092,-1.19162 -6.5539,5e-5 -11.6845,1.39027 -15.3917,4.17067 -3.7073,2.78048 -5.5609,7.05045 -5.5609,12.8099 0,2.91288 0.4634,5.46161 1.3902,7.64623 0.9268,2.18465 2.1846,4.00518 3.7735,5.46158 1.655,1.39024 3.5748,2.44945 5.7595,3.17765 2.2508,0.66203 4.634,0.99303 7.1497,0.99302 3.31,1e-5 6.3883,-0.4634 9.235,-1.39022 2.8466,-0.99301 5.3622,-2.15152 7.5469,-3.47556 2.2508,-1.324 4.1375,-2.64802 5.6602,-3.97206 1.5888,-1.324 2.7473,-2.35012 3.4756,-3.07835 l 0,-18.8673"
         style="font-size:203.36964417px;font-variant:normal;font-weight:normal;font-stretch:normal;writing-mode:lr-tb;stroke:#000000;font-family:Corbel;-inkscape-font-specification:Corbel"
         id="path9352"
         inkscape:connector-curvature="0" />
      <path
         d="m 1776.6182,394.16235 c 0,2.5819 0.5627,4.70033 1.6882,6.3553 1.1254,1.65508 2.6149,3.0122 4.4685,4.07136 1.9198,0.99308 4.1045,1.82059 6.5539,2.48254 2.5156,0.66207 5.0975,1.25788 7.7456,1.78743 3.641,0.79447 7.0834,1.68818 10.3273,2.68114 3.2438,0.92687 6.2229,2.35019 8.9372,4.26997 2.7804,1.91988 4.9981,4.53482 6.6532,7.84483 1.7211,3.24388 2.5817,7.48075 2.5818,12.7106 -1e-4,4.7665 -0.9269,9.00336 -2.7804,12.7106 -1.8537,3.64107 -4.4687,6.71942 -7.8448,9.23505 -3.3764,2.44944 -7.4146,4.30307 -12.1148,5.56089 -4.7004,1.32402 -9.864,1.98603 -15.4911,1.98603 -3.4425,0 -6.587,-0.19861 -9.4336,-0.59581 -2.7805,-0.33101 -5.263,-0.79441 -7.4477,-1.39022 -2.1184,-0.52961 -3.9389,-1.09232 -5.4615,-1.68813 -1.5227,-0.59581 -2.7805,-1.15852 -3.7735,-1.68813 l 0,-12.9092 c 3.972,1.58884 7.911,2.84666 11.8169,3.77346 3.9058,0.92682 8.2089,1.39023 12.9092,1.39022 3.7072,1e-5 7.0504,-0.33099 10.0295,-0.99302 2.979,-0.66199 5.5277,-1.62191 7.6462,-2.87974 2.1846,-1.32401 3.8396,-2.94593 4.9651,-4.86578 1.1915,-1.98601 1.7873,-4.26994 1.7874,-6.85181 -10e-5,-2.64801 -0.5297,-4.83264 -1.5888,-6.5539 -1.0593,-1.7212 -2.4826,-3.14452 -4.27,-4.26997 -1.7875,-1.12538 -3.8728,-2.0522 -6.256,-2.78045 -2.3171,-0.72817 -4.7665,-1.39018 -7.3483,-1.98603 -3.3763,-0.72817 -6.8188,-1.58878 -10.3274,-2.58184 -3.4425,-0.99297 -6.587,-2.38319 -9.4336,-4.17067 -2.8467,-1.78737 -5.1637,-4.20371 -6.9512,-7.24901 -1.7212,-3.11139 -2.5818,-7.08345 -2.5818,-11.91619 0,-4.96501 0.8937,-9.26807 2.6811,-12.90921 1.7875,-3.64097 4.2038,-6.65312 7.2491,-9.03644 3.0452,-2.38315 6.5869,-4.17057 10.6252,-5.36229 4.0383,-1.19152 8.3082,-1.78733 12.8099,-1.78743 5.2299,10e-5 10.0625,0.49661 14.4981,1.48953 4.5016,0.99311 8.5729,2.25093 12.2141,3.77346 l 0,13.10781 c -3.9722,-1.52255 -8.0104,-2.74726 -12.1148,-3.67416 -4.0383,-0.99293 -8.209,-1.52254 -12.512,-1.58883 -3.6411,9e-5 -6.7526,0.36419 -9.3344,1.09232 -2.5819,0.72829 -4.7003,1.75441 -6.3553,3.07835 -1.655,1.2579 -2.8798,2.78052 -3.6741,4.56787 -0.7283,1.7213 -1.0924,3.64113 -1.0924,5.7595"
         style="font-size:203.36964417px;font-variant:normal;font-weight:normal;font-stretch:normal;writing-mode:lr-tb;stroke:#000000;font-family:Corbel;-inkscape-font-specification:Corbel"
         id="path9354"
         inkscape:connector-curvature="0" />
      <path
         d="m 1885.7897,379.76362 c -3.5088,8e-5 -6.7857,0.69519 -9.8309,2.08533 -2.9791,1.3903 -5.594,3.27703 -7.8448,5.66019 -2.2509,2.38331 -4.0714,5.19685 -5.4616,8.44063 -1.3903,3.17772 -2.2509,6.58707 -2.5819,10.22807 l 47.6648,0 c -10e-5,-3.7072 -0.4966,-7.14965 -1.4895,-10.32737 -0.9269,-3.24378 -2.3171,-6.05732 -4.1707,-8.44063 -1.8537,-2.38316 -4.1376,-4.23679 -6.8518,-5.56089 -2.7143,-1.39014 -5.8588,-2.08525 -9.4336,-2.08533 m 8.4406,72.68876 c 5.0974,10e-6 9.7315,-0.3972 13.9022,-1.19162 4.2368,-0.8606 8.4406,-2.05222 12.6113,-3.57486 l 0,12.8099 c -3.3763,1.65503 -7.547,2.94595 -12.512,3.87277 -4.9651,0.99301 -10.2943,1.48952 -15.9875,1.48952 -6.7526,0 -13.1079,-0.86062 -19.066,-2.58184 -5.8919,-1.72123 -11.0556,-4.50167 -15.491,-8.34134 -4.4355,-3.83964 -7.9441,-8.83782 -10.526,-14.99453 -2.5156,-6.22287 -3.7734,-13.70359 -3.7734,-22.44216 0,-8.60609 1.1916,-16.0537 3.5748,-22.34286 2.3833,-6.35523 5.5609,-11.6513 9.533,-15.88825 3.972,-4.23678 8.5399,-7.41443 13.7036,-9.53295 5.1636,-2.11834 10.559,-3.17756 16.1862,-3.17766 5.296,10e-5 10.228,0.89382 14.7959,2.68115 4.634,1.72132 8.6392,4.46866 12.0155,8.24203 3.3762,3.77354 6.0242,8.63931 7.9441,14.59733 1.986,5.95816 2.979,13.10787 2.9791,21.44914 -1e-4,0.79447 -1e-4,1.48958 0,2.08534 -1e-4,0.52965 -0.033,1.78747 -0.099,3.77346 l -64.7447,0 c 0,6.02433 0.8937,11.15491 2.6812,15.39174 1.8536,4.17069 4.3361,7.58005 7.4476,10.22807 3.1776,2.58185 6.8849,4.46858 11.1218,5.66019 4.2368,1.19163 8.8047,1.78744 13.7036,1.78743"
         style="font-size:203.36964417px;font-variant:normal;font-weight:normal;font-stretch:normal;writing-mode:lr-tb;stroke:#000000;font-family:Corbel;-inkscape-font-specification:Corbel"
         id="path9356"
         inkscape:connector-curvature="0" />
      <path
         d="m 2001.762,381.55104 -1.1916,0 c -3.6412,9e-5 -7.216,0.33109 -10.7246,0.99302 -3.5087,0.66209 -6.8188,1.68821 -9.9302,3.07835 -3.0453,1.3241 -5.8257,2.97912 -8.3413,4.96508 -2.4495,1.9861 -4.5017,4.33624 -6.1567,7.05041 l 0,65.73765 -15.3917,0 0,-94.33651 11.9161,0 2.9791,14.99454 0.2979,0 c 1.5226,-2.44935 3.3762,-4.73329 5.5609,-6.85181 2.2508,-2.11834 4.7664,-3.97197 7.5469,-5.56088 2.7804,-1.58874 5.8256,-2.81345 9.1358,-3.67416 3.3099,-0.92672 6.7855,-1.39013 10.4266,-1.39023 0.662,10e-5 1.324,0.0332 1.986,0.0993 0.7282,9e-5 1.3571,0.0332 1.8868,0.0993 l 0,14.79593"
         style="font-size:203.36964417px;font-variant:normal;font-weight:normal;font-stretch:normal;writing-mode:lr-tb;stroke:#000000;font-family:Corbel;-inkscape-font-specification:Corbel"
         id="path9358"
         inkscape:connector-curvature="0" />
      <path
         d="m 2028.0848,394.16235 c 0,2.5819 0.5627,4.70033 1.6881,6.3553 1.1254,1.65508 2.6149,3.0122 4.4686,4.07136 1.9198,0.99308 4.1044,1.82059 6.5539,2.48254 2.5156,0.66207 5.0974,1.25788 7.7455,1.78743 3.641,0.79447 7.0835,1.68818 10.3274,2.68114 3.2438,0.92687 6.2228,2.35019 8.9371,4.26997 2.7804,1.91988 4.9981,4.53482 6.6532,7.84483 1.7212,3.24388 2.5818,7.48075 2.5819,12.7106 -1e-4,4.7665 -0.9269,9.00336 -2.7805,12.7106 -1.8537,3.64107 -4.4686,6.71942 -7.8448,9.23505 -3.3763,2.44944 -7.4146,4.30307 -12.1148,5.56089 -4.7003,1.32402 -9.864,1.98603 -15.491,1.98603 -3.4425,0 -6.5871,-0.19861 -9.4337,-0.59581 -2.7805,-0.33101 -5.263,-0.79441 -7.4476,-1.39022 -2.1185,-0.52961 -3.939,-1.09232 -5.4616,-1.68813 -1.5226,-0.59581 -2.7804,-1.15852 -3.7735,-1.68813 l 0,-12.9092 c 3.9721,1.58884 7.9111,2.84666 11.8169,3.77346 3.9059,0.92682 8.2089,1.39023 12.9092,1.39022 3.7073,1e-5 7.0504,-0.33099 10.0295,-0.99302 2.979,-0.66199 5.5277,-1.62191 7.6462,-2.87974 2.1846,-1.32401 3.8396,-2.94593 4.9651,-4.86578 1.1916,-1.98601 1.7874,-4.26994 1.7874,-6.85181 0,-2.64801 -0.5296,-4.83264 -1.5888,-6.5539 -1.0593,-1.7212 -2.4826,-3.14452 -4.27,-4.26997 -1.7874,-1.12538 -3.8728,-2.0522 -6.256,-2.78045 -2.317,-0.72817 -4.7665,-1.39018 -7.3483,-1.98603 -3.3763,-0.72817 -6.8187,-1.58878 -10.3273,-2.58184 -3.4425,-0.99297 -6.5871,-2.38319 -9.4337,-4.17067 -2.8467,-1.78737 -5.1637,-4.20371 -6.9511,-7.24901 -1.7212,-3.11139 -2.5819,-7.08345 -2.5818,-11.91619 -10e-5,-4.96501 0.8937,-9.26807 2.6811,-12.90921 1.7874,-3.64097 4.2037,-6.65312 7.249,-9.03644 3.0452,-2.38315 6.587,-4.17057 10.6253,-5.36229 4.0382,-1.19152 8.3082,-1.78733 12.8099,-1.78743 5.2298,10e-5 10.0625,0.49661 14.498,1.48953 4.5016,0.99311 8.573,2.25093 12.2141,3.77346 l 0,13.10781 c -3.9721,-1.52255 -8.0104,-2.74726 -12.1148,-3.67416 -4.0383,-0.99293 -8.209,-1.52254 -12.512,-1.58883 -3.6411,9e-5 -6.7525,0.36419 -9.3343,1.09232 -2.5819,0.72829 -4.7003,1.75441 -6.3553,3.07835 -1.6551,1.2579 -2.8798,2.78052 -3.6742,4.56787 -0.7282,1.7213 -1.0923,3.64113 -1.0923,5.7595"
         style="font-size:203.36964417px;font-variant:normal;font-weight:normal;font-stretch:normal;writing-mode:lr-tb;stroke:#000000;font-family:Corbel;-inkscape-font-specification:Corbel"
         id="path9360"
         inkscape:connector-curvature="0" />
      <path
         d="m 2155.5278,452.94888 -0.3972,0 c -1.2579,1.58884 -2.8467,3.17766 -4.7665,4.76648 -1.9199,1.52263 -4.1376,2.91285 -6.6532,4.17067 -2.5157,1.19161 -5.263,2.15153 -8.242,2.87974 -2.9791,0.72821 -6.1567,1.09232 -9.533,1.09232 -4.5679,0 -8.7716,-0.69511 -12.6113,-2.08533 -3.7734,-1.32402 -7.0504,-3.27695 -9.8308,-5.8588 -2.7143,-2.64803 -4.8327,-5.85878 -6.3553,-9.63225 -1.5226,-3.77344 -2.284,-8.04341 -2.284,-12.80991 0,-4.70024 0.8276,-8.904 2.4826,-12.6113 1.7212,-3.70721 4.1044,-6.85176 7.1497,-9.43365 3.0452,-2.58179 6.6863,-4.56782 10.9232,-5.95809 4.303,-1.39017 9.0364,-2.08528 14.2001,-2.08534 4.8988,0.0663 9.4336,0.49657 13.6043,1.29092 4.1706,0.79447 7.8779,1.78749 11.1218,2.97905 l 0.3972,0 0,-6.5539 c -1e-4,-2.58178 -0.1656,-4.86571 -0.4965,-6.85181 -0.3311,-1.98596 -0.8938,-3.74029 -1.6881,-5.26299 -1.7213,-3.17757 -4.4687,-5.79251 -8.2421,-7.84482 -3.7735,-2.11835 -8.871,-3.17757 -15.2924,-3.17765 -4.7665,8e-5 -9.2682,0.46349 -13.505,1.39022 -4.1707,0.8607 -8.3414,2.08541 -12.512,3.67416 l 0,-12.90921 c 1.5888,-0.79432 3.4424,-1.52253 5.5609,-2.18463 2.1846,-0.72812 4.4685,-1.32393 6.8518,-1.78743 2.3832,-0.52951 4.8988,-0.92672 7.5469,-1.19162 2.648,-0.26471 5.296,-0.39711 7.9441,-0.39721 9.5329,10e-5 17.3115,1.68823 23.3359,5.06439 6.0904,3.37634 10.4597,7.8449 13.1078,13.40571 0.9929,2.11851 1.688,4.46864 2.0853,7.05041 0.4634,2.51571 0.6951,5.29615 0.6951,8.34134 l 0,62.9572 -12.9092,0 -1.6881,-10.42667 m -0.7944,-30.98209 c -2.8467,-0.79437 -6.223,-1.55568 -10.1288,-2.28394 -3.9059,-0.72816 -8.2089,-1.12537 -12.9092,-1.19162 -6.5539,5e-5 -11.6845,1.39027 -15.3917,4.17067 -3.7073,2.78048 -5.5609,7.05045 -5.5609,12.8099 0,2.91288 0.4634,5.46161 1.3902,7.64623 0.9268,2.18465 2.1846,4.00518 3.7735,5.46158 1.655,1.39024 3.5748,2.44945 5.7595,3.17765 2.2508,0.66203 4.634,0.99303 7.1497,0.99302 3.31,1e-5 6.3883,-0.4634 9.235,-1.39022 2.8466,-0.99301 5.3623,-2.15152 7.547,-3.47556 2.2507,-1.324 4.1375,-2.64802 5.6601,-3.97206 1.5888,-1.324 2.7473,-2.35012 3.4756,-3.07835 l 0,-18.8673"
         style="font-size:203.36964417px;font-variant:normal;font-weight:normal;font-stretch:normal;writing-mode:lr-tb;stroke:#000000;font-family:Corbel;-inkscape-font-specification:Corbel"
         id="path9362"
         inkscape:connector-curvature="0" />
      <path
         d="m 2237.4037,465.85809 c -4.8989,0 -9.3013,-0.52961 -13.2071,-1.58883 -3.9059,-1.05921 -7.3483,-2.54874 -10.3274,-4.46857 -2.9128,-1.91982 -5.3954,-4.20376 -7.4476,-6.85181 -2.0522,-2.71423 -3.6742,-5.66017 -4.8658,-8.83784 -0.9268,-2.38321 -1.5888,-4.99815 -1.986,-7.84482 -0.3972,-2.84662 -0.5958,-5.95807 -0.5958,-9.33435 l 0,-57.89283 15.3917,0 0,57.79353 c 0,5.22991 0.6951,9.59918 2.0854,13.10781 1.5888,3.97208 4.1375,7.11663 7.6462,9.43365 3.5748,2.25084 8.1096,3.37626 13.6043,3.37625 5.8257,1e-5 10.4928,-1.25781 14.0015,-3.77346 3.5748,-2.51562 6.1236,-5.89187 7.6463,-10.12876 1.1253,-3.24383 1.688,-7.24899 1.6881,-12.01549 l 0,-57.79353 15.3917,0 0,57.99213 c -1e-4,3.17768 -0.1987,6.15673 -0.5958,8.93714 -0.3311,2.71427 -0.8938,5.22991 -1.6881,7.54692 -1.1917,3.24387 -2.8467,6.25602 -4.9651,9.03645 -2.0523,2.71425 -4.601,5.06438 -7.6462,7.05041 -3.0453,1.98603 -6.5871,3.50866 -10.6253,4.56787 -3.9721,1.12542 -8.4738,1.68813 -13.505,1.68813"
         style="font-size:203.36964417px;font-variant:normal;font-weight:normal;font-stretch:normal;writing-mode:lr-tb;stroke:#000000;font-family:Corbel;-inkscape-font-specification:Corbel"
         id="path9364"
         inkscape:connector-curvature="0" />
      <path
         d="m 2357.0486,381.55104 -1.1916,0 c -3.6411,9e-5 -7.216,0.33109 -10.7246,0.99302 -3.5087,0.66209 -6.8187,1.68821 -9.9301,3.07835 -3.0453,1.3241 -5.8258,2.97912 -8.3414,4.96508 -2.4495,1.9861 -4.5017,4.33624 -6.1567,7.05041 l 0,65.73765 -15.3917,0 0,-94.33651 11.9162,0 2.979,14.99454 0.2979,0 c 1.5226,-2.44935 3.3762,-4.73329 5.5609,-6.85181 2.2508,-2.11834 4.7664,-3.97197 7.5469,-5.56088 2.7804,-1.58874 5.8257,-2.81345 9.1358,-3.67416 3.31,-0.92672 6.7855,-1.39013 10.4266,-1.39023 0.662,10e-5 1.324,0.0332 1.9861,0.0993 0.7281,9e-5 1.357,0.0332 1.8867,0.0993 l 0,14.79593"
         style="font-size:203.36964417px;font-variant:normal;font-weight:normal;font-stretch:normal;writing-mode:lr-tb;stroke:#000000;font-family:Corbel;-inkscape-font-specification:Corbel"
         id="path9366"
         inkscape:connector-curvature="0" />
    </g>
    <g
       transform="scale(1.0850571,0.92161047)"
       style="font-size:37.58374405px;fill:none;stroke:#000000"
       id="text9215">
      <path
         d="m 1863.5656,599.26611 23.9946,-100.20897 9.3453,0 -23.9946,100.20897 -9.3453,0"
         style="font-size:78.11123657px;font-variant:normal;font-weight:normal;font-stretch:normal;writing-mode:lr-tb;stroke:#000000;stroke-width:1.65556455;font-family:Corbel;-inkscape-font-specification:Corbel"
         id="path9329"
         inkscape:connector-curvature="0" />
      <path
         d="m 1916.935,531.89183 0.1894,0 c 1.0945,-1.3891 2.2943,-2.67302 3.5992,-3.85175 1.347,-1.22072 2.8415,-2.27311 4.4833,-3.15718 1.6416,-0.92606 3.4306,-1.64167 5.3672,-2.14689 1.9784,-0.50509 4.1253,-0.75767 6.4406,-0.75772 2.7362,5e-5 5.3039,0.37891 7.7035,1.13658 2.3994,0.75779 4.4831,1.97857 6.2513,3.66233 1.7679,1.68389 3.1571,3.89392 4.1673,6.63009 1.0525,2.69418 1.5786,6.01973 1.5786,9.97669 l 0,40.15936 -9.7872,0 0,-38.58076 c 0,-5.17775 -1.0104,-8.90321 -3.0308,-11.17643 -1.9786,-2.27313 -4.8833,-3.40971 -8.7139,-3.40976 -3.3676,5e-5 -6.6301,0.9472 -9.7872,2.84147 -3.1572,1.85226 -5.8725,4.4201 -8.1456,7.70352 l 0,42.62196 -9.7872,0 0,-59.98646 7.5772,0 1.8943,8.33495"
         style="font-size:78.11123657px;font-variant:normal;font-weight:normal;font-stretch:normal;writing-mode:lr-tb;stroke:#000000;stroke-width:1.65556455;font-family:Corbel;-inkscape-font-specification:Corbel"
         id="path9331"
         inkscape:connector-curvature="0" />
      <path
         d="m 2018.8675,553.61325 c -2e-4,-3.70439 -0.4633,-6.98785 -1.3892,-9.85041 -0.8841,-2.90455 -2.1469,-5.34611 -3.7886,-7.32466 -1.5998,-2.02055 -3.5151,-3.53599 -5.7461,-4.54635 -2.2311,-1.05233 -4.6727,-1.57853 -7.3248,-1.57858 -2.652,5e-5 -5.0935,0.52625 -7.3245,1.57858 -2.2312,1.01036 -4.1676,2.5258 -5.8092,4.54635 -1.5998,1.97855 -2.8626,4.42011 -3.7886,7.32466 -0.8841,2.86256 -1.3261,6.14602 -1.3261,9.85041 0,3.66236 0.442,6.94582 1.3261,9.85041 0.926,2.86254 2.21,5.28304 3.8517,7.26152 1.6416,1.97852 3.5781,3.49396 5.8092,4.54635 2.231,1.01031 4.6726,1.51545 7.3247,1.51544 2.652,10e-6 5.0725,-0.50513 7.2615,-1.51544 2.231,-1.05239 4.1463,-2.56783 5.7461,-4.54635 1.6417,-1.97848 2.9045,-4.39898 3.7886,-7.26152 0.9259,-2.90459 1.389,-6.18805 1.3892,-9.85041 m 10.2292,0 c 0,4.71475 -0.6736,9.00853 -2.0206,12.8813 -1.3471,3.87283 -3.2625,7.1984 -5.7461,9.9767 -2.4415,2.73624 -5.4093,4.86206 -8.9032,6.37752 -3.494,1.51544 -7.409,2.27317 -11.7447,2.27317 -4.4623,0 -8.4613,-0.75773 -11.9974,-2.27317 -3.4939,-1.51546 -6.4827,-3.64128 -8.9664,-6.37752 -2.4414,-2.7783 -4.3147,-6.10387 -5.6198,-9.9767 -1.3049,-3.87277 -1.9573,-8.16655 -1.9573,-12.8813 0,-4.75678 0.6734,-9.0716 2.0206,-12.94444 1.3469,-3.87277 3.2412,-7.19833 5.6829,-9.9767 2.4836,-2.77827 5.4724,-4.92514 8.9663,-6.44066 3.5362,-1.51539 7.4721,-2.27311 11.8078,-2.27316 4.4201,5e-5 8.3982,0.75777 11.9344,2.27316 3.5359,1.51552 6.5247,3.66239 8.9663,6.44066 2.4415,2.77837 4.3148,6.10393 5.6197,9.9767 1.3049,3.87284 1.9575,8.18766 1.9575,12.94444"
         style="font-size:78.11123657px;font-variant:normal;font-weight:normal;font-stretch:normal;writing-mode:lr-tb;stroke:#000000;stroke-width:1.65556455;font-family:Corbel;-inkscape-font-specification:Corbel"
         id="path9333"
         inkscape:connector-curvature="0" />
      <path
         d="m 2077.4385,531.51297 -0.7577,0 c -2.3153,5e-5 -4.5886,0.21054 -6.8196,0.63145 -2.2311,0.42099 -4.3358,1.07349 -6.3143,1.95744 -1.9364,0.84197 -3.7045,1.89436 -5.3041,3.1572 -1.5576,1.26291 -2.8625,2.75731 -3.915,4.48318 l 0,41.8011 -9.7872,0 0,-59.98646 7.5772,0 1.8943,9.53469 0.1896,0 c 0.9682,-1.55749 2.1468,-3.0098 3.5359,-4.35692 1.4313,-1.347 3.0309,-2.52568 4.799,-3.53603 1.768,-1.01025 3.7044,-1.78902 5.8092,-2.33632 2.1048,-0.58928 4.3148,-0.88396 6.6301,-0.88401 0.4208,5e-5 0.8418,0.021 1.2628,0.0631 0.4631,5e-5 0.8629,0.021 1.1998,0.0631 l 0,9.40839"
         style="font-size:78.11123657px;font-variant:normal;font-weight:normal;font-stretch:normal;writing-mode:lr-tb;stroke:#000000;stroke-width:1.65556455;font-family:Corbel;-inkscape-font-specification:Corbel"
         id="path9335"
         inkscape:connector-curvature="0" />
      <path
         d="m 2119.4972,583.66963 c -0.8421,0.33677 -2.126,0.65249 -3.8517,0.94716 -1.7261,0.29466 -3.7888,0.46305 -6.1882,0.50515 -3.1571,0 -5.8935,-0.39992 -8.2086,-1.19974 -2.3153,-0.75772 -4.2517,-1.85221 -5.8092,-3.28346 -1.5155,-1.47336 -2.6521,-3.24137 -3.4098,-5.30407 -0.7578,-2.06268 -1.1366,-4.3569 -1.1366,-6.88266 l 0,-36.49704 -11.5553,0 0,-8.39809 11.5553,0 0,-16.41734 9.7872,0 0,16.41734 17.9328,0 0,8.39809 -17.9328,0 0,34.98159 c 0,1.38918 0.1894,2.6731 0.5684,3.85177 0.4208,1.17869 1.0523,2.21004 1.8943,3.09403 0.8839,0.84192 1.9994,1.51546 3.3466,2.0206 1.3471,0.46306 2.9677,0.69459 4.862,0.69458 1.3049,10e-6 2.6731,-0.1053 4.1043,-0.31572 1.4733,-0.21047 2.8204,-0.48409 4.0413,-0.82086 l 0,8.20867"
         style="font-size:78.11123657px;font-variant:normal;font-weight:normal;font-stretch:normal;writing-mode:lr-tb;stroke:#000000;stroke-width:1.65556455;font-family:Corbel;-inkscape-font-specification:Corbel"
         id="path9337"
         inkscape:connector-curvature="0" />
      <path
         d="m 2139.4922,554.18154 c 0,3.45189 0.3788,6.58802 1.1366,9.40841 0.7998,2.77833 1.9363,5.15675 3.4098,7.13523 1.4733,1.93642 3.2835,3.43081 5.4302,4.48321 2.147,1.05239 4.6096,1.57859 7.388,1.57858 2.0625,10e-6 3.9358,-0.27362 5.6196,-0.82086 1.6839,-0.54723 3.1782,-1.24183 4.4833,-2.08375 1.347,-0.8419 2.4835,-1.72591 3.4098,-2.65203 0.9682,-0.96819 1.7258,-1.8522 2.2731,-2.65203 l 0,-31.38239 c -2.0206,-2.06265 -4.3569,-3.70439 -7.009,-4.9252 -2.652,-1.26283 -5.5145,-1.89427 -8.5874,-1.89432 -1.8523,5e-5 -3.8098,0.35787 -5.8725,1.07344 -2.0206,0.67358 -3.9149,1.9154 -5.6829,3.72548 -1.7259,1.81016 -3.1571,4.25171 -4.2937,7.32467 -1.1367,3.03092 -1.7049,6.92478 -1.7049,11.68156 m -10.2292,0.12632 c 0,-4.16744 0.3998,-7.85082 1.1996,-11.05013 0.842,-3.24133 1.9365,-6.06175 3.2835,-8.46124 1.3471,-2.39941 2.9257,-4.39897 4.7357,-5.99866 1.8102,-1.64167 3.6835,-2.96768 5.6199,-3.97804 1.9363,-1.01024 3.8938,-1.72588 5.8724,-2.14689 2.0205,-0.46299 3.9148,-0.69452 5.6829,-0.69457 3.6623,5e-5 6.8405,0.61044 9.5347,1.83115 2.6941,1.22085 5.1146,3.00992 7.2615,5.36721 l 0.1894,0 0,-37.06531 9.7874,0 0,91.432 -7.388,0 -2.0204,-6.69324 -0.2527,0 c -0.7577,0.96821 -1.6418,1.95746 -2.652,2.96777 -1.0104,0.96819 -2.21,1.85221 -3.5992,2.65203 -1.3472,0.79982 -2.9257,1.43125 -4.7358,1.8943 -1.7681,0.50516 -3.8308,0.75773 -6.1881,0.75773 -3.2835,0 -6.5038,-0.54724 -9.6609,-1.64174 -3.1572,-1.13658 -5.9776,-2.92564 -8.4613,-5.3672 -2.4416,-2.48365 -4.42,-5.66187 -5.9355,-9.5347 -1.5155,-3.91488 -2.2731,-8.6717 -2.2731,-14.27047"
         style="font-size:78.11123657px;font-variant:normal;font-weight:normal;font-stretch:normal;writing-mode:lr-tb;stroke:#000000;stroke-width:1.65556455;font-family:Corbel;-inkscape-font-specification:Corbel"
         id="path9339"
         inkscape:connector-curvature="0" />
      <path
         d="m 2228.5449,583.54334 0,-91.43199 9.7872,0 0,91.43199 -9.7872,0"
         style="font-size:78.11123657px;font-variant:normal;font-weight:normal;font-stretch:normal;writing-mode:lr-tb;stroke:#000000;stroke-width:1.65556455;font-family:Corbel;-inkscape-font-specification:Corbel"
         id="path9341"
         inkscape:connector-curvature="0" />
      <path
         d="m 2293.0235,576.91325 -0.2525,0 c -0.7999,1.01031 -1.8102,2.02062 -3.031,3.03091 -1.2208,0.96821 -2.631,1.85222 -4.2306,2.65203 -1.5996,0.75772 -3.3466,1.36811 -5.2409,1.83116 -1.8943,0.46306 -3.9149,0.69459 -6.0618,0.69459 -2.9045,0 -5.5776,-0.44202 -8.0192,-1.32602 -2.3994,-0.84191 -4.4831,-2.08375 -6.2513,-3.72547 -1.7259,-1.68383 -3.0729,-3.72547 -4.0411,-6.12494 -0.9683,-2.39945 -1.4524,-5.11462 -1.4524,-8.14553 0,-2.98878 0.5263,-5.66187 1.5786,-8.01924 1.0945,-2.35734 2.61,-4.35688 4.5463,-5.99866 1.9366,-1.64169 4.2517,-2.90457 6.946,-3.78861 2.7361,-0.88397 5.7459,-1.32597 9.0294,-1.32602 3.1151,0.0421 5.9986,0.31576 8.6507,0.82088 2.652,0.50517 5.0094,1.13661 7.072,1.89429 l 0.2527,0 0,-4.16747 c 0,-1.64169 -0.106,-3.094 -0.3157,-4.35691 -0.2106,-1.26283 -0.5684,-2.37837 -1.0735,-3.34661 -1.0945,-2.02055 -2.8414,-3.68333 -5.2409,-4.98835 -2.3995,-1.34702 -5.6408,-2.02055 -9.7241,-2.0206 -3.031,5e-5 -5.8935,0.29472 -8.5876,0.88401 -2.652,0.54729 -5.3041,1.32607 -7.9561,2.33631 l 0,-8.20867 c 1.0104,-0.50509 2.189,-0.96814 3.5361,-1.38917 1.3892,-0.46299 2.8415,-0.84185 4.357,-1.13657 1.5153,-0.33671 3.1149,-0.58929 4.7988,-0.75772 1.6839,-0.16832 3.3677,-0.25253 5.0514,-0.25258 6.0619,5e-5 11.0081,1.07351 14.8389,3.22033 3.8727,2.14693 6.651,4.98839 8.3349,8.52438 0.6314,1.34712 1.0735,2.84151 1.3261,4.4832 0.2945,1.59969 0.4419,3.3677 0.4419,5.30407 l 0,40.03307 -8.2086,0 -1.0735,-6.63009 m -0.5051,-19.7008 c -1.8102,-0.50513 -3.957,-0.98923 -6.4407,-1.45231 -2.4836,-0.46303 -5.2198,-0.7156 -8.2086,-0.75772 -4.1675,2e-5 -7.43,0.88404 -9.7873,2.65203 -2.3574,1.76805 -3.536,4.48322 -3.536,8.14553 0,1.85223 0.2947,3.47291 0.8839,4.86206 0.5894,1.38917 1.3892,2.54681 2.3996,3.4729 1.0523,0.88402 2.2731,1.55755 3.6623,2.0206 1.4312,0.42096 2.9467,0.63144 4.5463,0.63143 2.1047,10e-6 4.0623,-0.29466 5.8723,-0.88401 1.8102,-0.63143 3.4098,-1.36811 4.799,-2.21003 1.4312,-0.8419 2.631,-1.68381 3.5992,-2.52574 1.0102,-0.84191 1.7469,-1.49438 2.21,-1.95746 l 0,-11.99728"
         style="font-size:78.11123657px;font-variant:normal;font-weight:normal;font-stretch:normal;writing-mode:lr-tb;stroke:#000000;stroke-width:1.65556455;font-family:Corbel;-inkscape-font-specification:Corbel"
         id="path9343"
         inkscape:connector-curvature="0" />
      <path
         d="m 2364.8505,553.29754 c 0,-4.75679 -0.5684,-8.60854 -1.7047,-11.5553 -1.0947,-2.98874 -2.5259,-5.30401 -4.2939,-6.94579 -1.7259,-1.68379 -3.5782,-2.84141 -5.5566,-3.47291 -1.9785,-0.63138 -3.9571,-0.9471 -5.9355,-0.94715 -3.031,5e-5 -5.8935,0.63149 -8.5876,1.89432 -2.652,1.26291 -5.0094,2.90465 -7.0721,4.9252 l 0,31.38239 c 0.5894,0.79983 1.3472,1.68384 2.2733,2.65203 0.9682,0.92612 2.1047,1.81013 3.4096,2.65203 1.3049,0.79984 2.7574,1.49441 4.357,2.08375 1.6416,0.54724 3.4308,0.82087 5.3672,0.82086 2.9046,10e-6 5.4514,-0.56827 7.6404,-1.70487 2.231,-1.13658 4.0833,-2.73622 5.5566,-4.79892 1.5155,-2.10477 2.652,-4.58843 3.4098,-7.45095 0.7577,-2.90459 1.1365,-6.08281 1.1365,-9.53469 m 10.2294,-0.75772 c -2e-4,5.59875 -0.7579,10.43976 -2.2733,14.52304 -1.5155,4.0833 -3.515,7.47199 -5.9986,10.16613 -2.4836,2.65203 -5.3251,4.63053 -8.5243,5.93549 -3.1994,1.30497 -6.5039,1.95746 -9.9137,1.95746 -2.5678,0 -4.841,-0.33677 -6.8194,-1.01031 -1.9365,-0.63143 -3.5992,-1.38915 -4.9884,-2.27317 -1.3471,-0.92609 -2.4416,-1.8522 -3.2835,-2.77832 -0.7998,-0.92609 -1.3681,-1.66277 -1.7049,-2.21003 l -0.1894,0 -2.0837,6.69323 -7.3878,0 0,-91.43199 9.7872,0 0,37.06531 0.1894,0 c 2.147,-2.27311 4.6517,-4.04114 7.5141,-5.30407 2.8625,-1.26281 6.125,-1.89425 9.7874,-1.8943 1.6837,5e-5 3.4939,0.18948 5.4303,0.56829 1.9785,0.37893 3.9149,1.0314 5.8092,1.95746 1.9363,0.92616 3.7886,2.14694 5.5567,3.66232 1.768,1.51551 3.3254,3.40981 4.6725,5.68293 1.3471,2.23112 2.4204,4.90421 3.2204,8.01924 0.7998,3.07304 1.1996,6.63012 1.1998,10.67129"
         style="font-size:78.11123657px;font-variant:normal;font-weight:normal;font-stretch:normal;writing-mode:lr-tb;stroke:#000000;stroke-width:1.65556455;font-family:Corbel;-inkscape-font-specification:Corbel"
         id="path9345"
         inkscape:connector-curvature="0" />
      <path
         d="m 2396.9105,539.53223 c 0,1.64177 0.3578,2.98884 1.0733,4.04118 0.7157,1.05244 1.6629,1.91541 2.8416,2.58889 1.2207,0.63148 2.6099,1.15767 4.1674,1.5786 1.5996,0.42099 3.2414,0.79985 4.9253,1.13658 2.3152,0.50519 4.5041,1.07348 6.5668,1.70488 2.0627,0.58937 3.957,1.49443 5.6831,2.71518 1.7679,1.22081 3.1782,2.88358 4.2306,4.98834 1.0943,2.06272 1.6417,4.75684 1.6417,8.08239 0,3.03091 -0.5894,5.72504 -1.768,8.08238 -1.1788,2.31528 -2.8416,4.27273 -4.9884,5.87237 -2.1469,1.55754 -4.7147,2.73622 -7.7035,3.53604 -2.9888,0.84192 -6.2723,1.26288 -9.8505,1.26288 -2.1889,0 -4.1885,-0.12632 -5.9986,-0.37886 -1.7679,-0.21049 -3.3467,-0.50516 -4.7357,-0.88402 -1.3471,-0.33676 -2.5047,-0.69458 -3.4729,-1.07344 -0.9683,-0.37885 -1.7681,-0.73667 -2.3996,-1.07345 l 0,-8.20867 c 2.5258,1.01031 5.0305,1.81013 7.5142,2.39946 2.4836,0.58935 5.2198,0.88402 8.2086,0.88401 2.3573,10e-6 4.4832,-0.21047 6.3775,-0.63143 1.8943,-0.42095 3.515,-1.03134 4.8621,-1.83117 1.3892,-0.84191 2.4415,-1.87324 3.1572,-3.09404 0.7577,-1.26286 1.1365,-2.71516 1.1365,-4.35692 0,-1.6838 -0.3367,-3.07296 -1.0102,-4.16747 -0.6735,-1.09447 -1.5786,-1.99952 -2.7151,-2.71517 -1.1368,-0.7156 -2.4627,-1.30495 -3.9782,-1.76803 -1.4733,-0.46303 -3.0308,-0.88399 -4.6725,-1.26288 -2.1469,-0.46301 -4.3359,-1.01026 -6.567,-1.64172 -2.1889,-0.63142 -4.1885,-1.51542 -5.9987,-2.65204 -1.8101,-1.13656 -3.2833,-2.67305 -4.4201,-4.60949 -1.0945,-1.97846 -1.6416,-4.50421 -1.6416,-7.57723 0,-3.15715 0.5682,-5.89337 1.7049,-8.20867 1.1365,-2.31523 2.6731,-4.23058 4.6094,-5.74609 1.9364,-1.51538 4.1886,-2.65196 6.7564,-3.40975 2.5677,-0.75767 5.283,-1.13653 8.1455,-1.13658 3.3255,5e-5 6.3986,0.31577 9.219,0.94715 2.8625,0.6315 5.4513,1.43132 7.7666,2.39946 l 0,8.33496 c -2.5257,-0.96814 -5.0935,-1.74692 -7.7035,-2.33632 -2.5678,-0.63138 -5.2198,-0.96814 -7.956,-1.01029 -2.3153,5e-5 -4.2939,0.23158 -5.9355,0.69458 -1.6418,0.46311 -2.9888,1.11558 -4.0412,1.95745 -1.0525,0.79987 -1.8313,1.76808 -2.3364,2.90461 -0.463,1.09454 -0.6945,2.31531 -0.6945,3.66234"
         style="font-size:78.11123657px;font-variant:normal;font-weight:normal;font-stretch:normal;writing-mode:lr-tb;stroke:#000000;stroke-width:1.65556455;font-family:Corbel;-inkscape-font-specification:Corbel"
         id="path9347"
         inkscape:connector-curvature="0" />
    </g>
  </g>
</svg>
