<?xml version="1.0" encoding="UTF-8" standalone="no"?>
<!-- Created with Inkscape (http://www.inkscape.org/) -->

<svg
   xmlns:dc="http://purl.org/dc/elements/1.1/"
   xmlns:cc="http://creativecommons.org/ns#"
   xmlns:rdf="http://www.w3.org/1999/02/22-rdf-syntax-ns#"
   xmlns:svg="http://www.w3.org/2000/svg"
   xmlns="http://www.w3.org/2000/svg"
   xmlns:sodipodi="http://sodipodi.sourceforge.net/DTD/sodipodi-0.dtd"
   xmlns:inkscape="http://www.inkscape.org/namespaces/inkscape"
   width="40mm"
   height="40mm"
   viewBox="0 0 40 40"
   version="1.1"
   id="svg1138"
   inkscape:version="0.92.0 r15299"
   sodipodi:docname="GriffeOnly.svg"
   inkscape:export-filename="O:\000WORK\1 la griffe\Visuel\GriffeOnly.png"
   inkscape:export-xdpi="650.23999"
   inkscape:export-ydpi="650.23999">
  <defs
     id="defs1132" />
  <sodipodi:namedview
     id="base"
     pagecolor="#ffffff"
     bordercolor="#666666"
     borderopacity="1.0"
     inkscape:pageopacity="0.0"
     inkscape:pageshadow="2"
     inkscape:zoom="1.4"
     inkscape:cx="67.257137"
     inkscape:cy="151.7767"
     inkscape:document-units="mm"
     inkscape:current-layer="layer1"
     showgrid="false"
     inkscape:window-width="1280"
     inkscape:window-height="1005"
     inkscape:window-x="1276"
     inkscape:window-y="-4"
     inkscape:window-maximized="1"
     inkscape:pagecheckerboard="true" />
  <metadata
     id="metadata1135">
    <rdf:RDF>
      <cc:Work
         rdf:about="">
        <dc:format>image/svg+xml</dc:format>
        <dc:type
           rdf:resource="http://purl.org/dc/dcmitype/StillImage" />
        <dc:title></dc:title>
      </cc:Work>
    </rdf:RDF>
  </metadata>
  <g
     inkscape:label="Layer 1"
     inkscape:groupmode="layer"
     id="layer1"
     transform="translate(0,-257)">
    <g
       transform="matrix(0.28222223,0,0,0.28222223,-8.4294843,254.87549)"
       style="display:inline"
       id="g1101">
      <g
         transform="matrix(0.69819195,0,0,0.67807385,1.7776879,1.7560064)"
         id="g6549"
         style="fill:#000000;fill-opacity:1;stroke:none;stroke-width:0.53149611;stroke-miterlimit:4;stroke-dasharray:none;stroke-opacity:0.15686275">
        <g
           id="g6551"
           style="fill:#000000;fill-opacity:1;stroke:none;stroke-width:0.53149611;stroke-miterlimit:4;stroke-dasharray:none;stroke-opacity:0.15686275">
          <path
             inkscape:connector-curvature="0"
             d="m 50.732,113.164 c 0.104,0 0.21,-0.017 0.314,-0.051 31.066,-10.277 148.096,-59.414 163.875,-68.208 0.412,-0.23 0.607,-0.717 0.469,-1.168 -0.14,-0.452 -0.595,-0.736 -1.045,-0.702 -55.572,4.977 -97.273,23.301 -122.471,37.797 -27.329,15.721 -41.719,30.49 -41.861,30.638 -0.319,0.331 -0.372,0.837 -0.127,1.227 0.186,0.297 0.51,0.467 0.846,0.467 z"
             id="path6553"
             style="fill:#000000;fill-opacity:1;stroke:none;stroke-width:0.53149611;stroke-miterlimit:4;stroke-dasharray:none;stroke-opacity:0.15686275" />
          <path
             inkscape:connector-curvature="0"
             id="path6555"
             d="m 215.07673,44.727939 -1.60095,-1.600953 m -2.55776,0.270675 2.32678,2.326774 m -1.89972,0.928706 -2.98481,-2.984805 m -2.55775,0.270676 3.64283,3.642835 m -1.89972,0.928706 -4.27679,-4.276791 m -2.48476,0.343662 4.86183,4.861834 m -1.92429,0.904133 -5.42231,-5.422304 m -2.48476,0.343663 5.95413,5.954128 m -1.95294,0.875488 -6.46312,-6.463121 m -2.4165,0.411927 6.92668,6.926681 m -1.95294,0.875487 -7.39024,-7.390242 m -2.4165,0.411928 7.8538,7.853802 m -1.95294,0.875487 -8.29408,-8.294076 m -2.35251,0.475913 8.69365,8.69365 m -1.95294,0.875487 -9.09323,-9.093225 m -2.35251,0.475913 9.47959,9.479592 m -1.98217,0.846253 -9.81215,-9.81215 m -2.26435,0.564082 10.09432,10.09432 m -1.98217,0.846253 -10.37649,-10.376491 m -2.26435,0.564083 10.65866,10.658661 m -1.98217,0.846252 -10.94083,-10.940831 m -2.26435,0.564083 11.22301,11.223001 m -1.98218,0.846252 -11.50517,-11.505171 m -2.26435,0.564082 11.78735,11.787342 M 168.29238,65.825842 156.298,53.831461 m -2.15764,0.670791 12.16985,12.169843 m -1.98218,0.846253 -12.3453,-12.345304 m -2.15764,0.670791 12.52077,12.520765 m -1.98218,0.846253 -12.69622,-12.696226 m -2.15764,0.670791 12.87169,12.871688 m -1.98218,0.846252 -13.04714,-13.047149 m -2.13447,0.693965 13.19944,13.199436 m -1.98218,0.846253 -13.2796,-13.279603 m -2.06234,0.766086 13.35977,13.359769 m -1.98217,0.846253 -13.43994,-13.439936 m -2.06234,0.766086 13.5201,13.520103 m -1.98217,0.846252 -13.60027,-13.600269 m -2.06234,0.766086 13.68043,13.680436 m -1.98217,0.846252 -13.74965,-13.74965 m -1.97672,0.851705 13.74214,13.742147 m -2.00818,0.820247 -13.71069,-13.71069 m -1.97672,0.851705 13.67923,13.679233 m -2.00818,0.820248 -13.64777,-13.647776 m -1.97672,0.851704 13.61631,13.616319 m -2.00818,0.820248 -13.58486,-13.584862 m -1.94266,0.885764 13.51935,13.519346 m -2.00818,0.820248 -13.41055,-13.410544 m -1.89938,0.92905 13.30175,13.301742 M 120.4841,85.89981 107.29116,72.70687 m -1.89938,0.92905 13.08414,13.084138 m -2.00818,0.820247 -12.97534,-12.975336 m -1.88094,0.947485 12.8481,12.848099 M 112.45138,89.180801 99.7823,76.51172 M 97.953138,77.510985 110.4432,90.001049 M 108.43502,90.821296 96.123976,78.51025 m -1.829161,0.999266 12.132025,12.132028 m -2.00818,0.820248 -11.953007,-11.95301 M 90.681158,81.552714 102.41048,93.28204 M 100.4023,94.102288 88.918018,82.618001 m -1.763141,1.065286 11.239248,11.239248 M 96.385946,95.742783 85.391737,84.748574 m -1.763141,1.065287 10.74917,10.74917 M 92.369587,97.383279 81.878465,86.892157 m -1.70102,1.127407 10.183963,10.183963 m -2.008179,0.820247 -9.876804,-9.876804 m -1.701021,1.127407 9.552812,9.552812 m -2.036503,0.791921 -9.21733,-9.217327 m -1.685874,1.142553 8.866701,8.866704 m -2.036503,0.79192 -8.474019,-8.474017 m -1.64382,1.184606 8.081336,8.081341 m -2.036503,0.79192 -7.688654,-7.688654 m -1.64382,1.184606 7.295971,7.295968 m -2.036503,0.79193 -6.8555,-6.855502 m -1.590997,1.23743 6.409993,6.409992 m -2.036502,0.79193 -5.964487,-5.96449 m -1.577955,1.25047 5.497676,5.49768 m -2.078944,0.74948 -4.941512,-4.94151 m -1.522781,1.30564 4.385348,4.38535 m -2.078944,0.74949 -3.829185,-3.82919 m -1.52278,1.30565 3.273021,3.27302 m -2.078945,0.74948 -2.716857,-2.71686 m -1.449021,1.37941 2.086933,2.08693 m -2.078944,0.74949 -1.429063,-1.42907"
             style="fill:#000000;fill-opacity:1;stroke:none;stroke-width:0.53149611;stroke-miterlimit:4;stroke-dasharray:none;stroke-opacity:0.15686275" />
        </g>
      </g>
      <g
         transform="matrix(0.69819195,0,0,0.67807385,1.7776879,1.7560064)"
         style="fill:#000000;fill-opacity:1;stroke:none;stroke-width:0.53149611;stroke-miterlimit:4;stroke-dasharray:none;stroke-opacity:0.15686275"
         id="g6557">
        <g
           style="fill:#000000;fill-opacity:1;stroke:none;stroke-width:0.53149611;stroke-miterlimit:4;stroke-dasharray:none;stroke-opacity:0.15686275"
           id="g6559">
          <path
             inkscape:connector-curvature="0"
             d="m 231.639,75.065 c -0.134,-0.457 -0.581,-0.756 -1.047,-0.713 -93.968,8.29 -179.505,70.905 -180.358,71.536 -0.372,0.275 -0.506,0.771 -0.324,1.197 0.159,0.373 0.524,0.607 0.919,0.607 0.056,0 0.113,-0.005 0.17,-0.015 30.768,-5.3 116.163,-37.664 180.147,-71.445 0.422,-0.222 0.628,-0.711 0.493,-1.167 z"
             id="path6561"
             style="fill:#000000;fill-opacity:1;stroke:none;stroke-width:0.53149611;stroke-miterlimit:4;stroke-dasharray:none;stroke-opacity:0.15686275" />
          <path
             inkscape:connector-curvature="0"
             style="fill:#000000;fill-opacity:1;stroke:none;stroke-width:0.53149611;stroke-miterlimit:4;stroke-dasharray:none;stroke-opacity:0.15686275"
             d="m 231.60269,75.712732 -1.32712,-1.327124 m -2.55686,0.271567 2.1965,2.196501 m -1.87923,0.949201 -2.87413,-2.874136 m -2.55686,0.271566 3.55177,3.551772 m -1.87923,0.949202 -4.17563,-4.175631 m -2.4788,0.349627 4.77521,4.775205 m -1.87923,0.949202 -5.37478,-5.374779 m -2.46134,0.367086 5.9569,5.956895 m -1.87923,0.949202 -6.45462,-6.454623 m -2.37695,0.451474 6.95235,6.95235 m -1.87923,0.949202 -7.45008,-7.450078 m -2.37695,0.451474 7.94781,7.947806 m -1.87923,0.949202 -8.44553,-8.445534 m -2.37696,0.451473 8.94326,8.943262 m -1.90047,0.927951 -9.41974,-9.419739 m -2.26924,0.559183 9.76055,9.760551 m -1.92844,0.899995 -10.0943,-10.094306 m -2.26219,0.566241 10.42806,10.428061 m -1.92843,0.899994 -10.76182,-10.761815 m -2.26218,0.56624 11.09557,11.09557 m -1.92843,0.899995 -11.42933,-11.429325 m -2.26219,0.56624 11.76308,11.76308 m -1.92843,0.899995 -12.04669,-12.04669 m -2.16663,0.661798 12.28489,12.284887 m -1.92843,0.899995 -12.52309,-12.523085 m -2.16663,0.661798 12.76128,12.761282 m -1.92843,0.899995 -12.99948,-12.99948 m -2.16663,0.661798 13.23768,13.237675 m -1.97009,0.85834 -13.43422,-13.434218 m -2.16421,0.664214 13.62694,13.626944 m -1.97149,0.85693 -13.74128,-13.741279 m -2.08583,0.742596 13.85561,13.855613 m -1.97149,0.85694 -13.96995,-13.969958 m -2.08584,0.742595 14.0843,14.084293 m -1.9715,0.85694 -14.19863,-14.198637 m -2.08583,0.742595 14.31297,14.312972 m -1.97149,0.85693 -14.42731,-14.427307 m -2.04751,0.780915 14.50333,14.503332 m -1.9715,0.85693 -14.54846,-14.548456 m -2.01662,0.811807 14.59359,14.593589 m -1.97149,0.85693 -14.63872,-14.638712 m -2.01662,0.811807 14.65589,14.655885 m -2.01244,0.81599 -14.66007,-14.660068 m -2.01662,0.811806 14.66425,14.664252 m -2.01244,0.81599 -14.65669,-14.6567 m -1.95667,0.87176 14.60093,14.60093 m -2.01244,0.81599 -14.54517,-14.54517 m -1.95667,0.87176 14.4894,14.4894 m -2.01243,0.81599 -14.43364,-14.43364 m -1.95667,0.87176 14.37787,14.37787 m -2.01244,0.81599 -14.3221,-14.3221 m -1.95374,0.87468 14.2634,14.26341 m -2.01243,0.81598 -14.15521,-14.1552 m -1.90424,0.92418 14.04701,14.04702 m -2.05535,0.77307 -13.89591,-13.8959 m -1.90424,0.92418 13.74477,13.74477 m -2.05537,0.77305 -13.59365,-13.59364 m -1.90424,0.92419 13.44251,13.44251 m -2.05537,0.77305 -13.28057,-13.28057 m -1.85801,0.97042 13.0832,13.0832 m -2.05538,0.77305 -12.88582,-12.88583 m -1.858011,0.97042 12.688461,12.68846 m -2.05538,0.77305 -12.491088,-12.49109 m -1.858008,0.97042 12.293726,12.29372 m -2.05538,0.77305 -12.096353,-12.09635 m -1.82394,1.00449 11.847703,11.8477 m -2.10622,0.72221 -11.558414,-11.55842 m -1.816931,1.0115 11.26913,11.26913 m -2.10622,0.72221 -10.979842,-10.97984 m -1.816931,1.01149 10.690554,10.69056 m -2.106219,0.7222 -10.401266,-10.40126 m -1.767904,1.06052 10.06295,10.06295 m -2.106218,0.72221 -9.721624,-9.72162 m -1.764893,1.06353 9.380297,9.3803 m -2.106219,0.72221 -9.038971,-9.03898 m -1.764892,1.06354 8.689082,8.68908 m -2.17676,0.65167 -8.277215,-8.27722 m -1.764892,1.06354 7.865347,7.86535 m -2.176761,0.65166 -7.453479,-7.45348 m -1.764893,1.06354 7.041612,7.04161 m -2.176761,0.65167 -6.622739,-6.62274 m -1.705692,1.12273 6.151671,6.15167 m -2.17676,0.65167 -5.680604,-5.6806 m -1.705693,1.12273 5.209536,5.20954 m -2.240793,0.58763 -4.674435,-4.67444 m -1.705693,1.12274 4.120138,4.12014 m -2.25999,0.56843 -3.565841,-3.56584 m -1.680017,1.14841 2.948133,2.94814 m -2.348898,0.47953 -2.259101,-2.2591 m -1.626141,1.20228 1.536344,1.53635"
             id="path6563" />
        </g>
      </g>
      <g
         transform="matrix(0.69819195,0,0,0.67807385,1.7776879,1.7560064)"
         style="fill:#000000;fill-opacity:1;stroke:none;stroke-width:0.53149611;stroke-miterlimit:4;stroke-dasharray:none;stroke-opacity:0.15686275"
         id="g6565">
        <g
           style="fill:#000000;fill-opacity:1;stroke:none;stroke-width:0.53149611;stroke-miterlimit:4;stroke-dasharray:none;stroke-opacity:0.15686275"
           id="g6567">
          <path
             inkscape:connector-curvature="0"
             d="m 233.68,111.526 c -0.154,-0.453 -0.616,-0.731 -1.081,-0.669 -95.768,12.883 -167.857,65.731 -168.574,66.263 -0.382,0.283 -0.512,0.797 -0.31,1.228 0.167,0.357 0.524,0.575 0.905,0.575 0.078,0 0.157,-0.009 0.236,-0.028 91.123,-22.149 167.612,-65.742 168.374,-66.18 0.416,-0.238 0.603,-0.736 0.45,-1.189 z"
             id="path6569"
             style="fill:#000000;fill-opacity:1;stroke:none;stroke-width:0.53149611;stroke-miterlimit:4;stroke-dasharray:none;stroke-opacity:0.15686275" />
          <path
             inkscape:connector-curvature="0"
             style="fill:#000000;fill-opacity:1;stroke:none;stroke-width:0.53149611;stroke-miterlimit:4;stroke-dasharray:none;stroke-opacity:0.15686275"
             d="m 233.67653,111.72769 -0.814,-0.81399 m -2.51971,0.30871 1.97948,1.97948 m -1.84095,0.98748 -2.57272,-2.57273 m -2.4342,0.39424 3.16597,3.16596 m -1.84095,0.98748 -3.75921,-3.7592 m -2.43419,0.39423 4.35245,4.35245 m -1.84095,0.98748 -4.94569,-4.94569 m -2.43419,0.39424 5.53893,5.53893 m -1.84095,0.98747 -6.06118,-6.06118 m -2.32807,0.50036 6.50399,6.50398 m -1.88579,0.94265 -6.94627,-6.94627 m -2.32806,0.50036 7.38855,7.38855 m -1.88579,0.94264 -7.83083,-7.83083 m -2.32806,0.50036 8.27311,8.27311 m -1.88579,0.94264 -8.71539,-8.71539 m -2.29607,0.53236 9.12567,9.12568 m -1.88578,0.94264 -9.47612,-9.47613 m -2.23624,0.5922 9.79929,9.79929 m -1.92927,0.89916 -10.10625,-10.10626 m -2.23623,0.5922 10.41321,10.41321 m -1.92927,0.89916 -10.72017,-10.72018 m -2.23624,0.5922 11.02714,11.02714 m -1.92927,0.89916 -11.33105,-11.33106 m -2.15599,0.67244 11.55778,11.55777 m -1.92928,0.89916 -11.78448,-11.78449 m -2.15599,0.67245 12.0112,12.0112 m -1.92926,0.89915 -12.23792,-12.23791 m -2.15599,0.67244 12.46464,12.46463 m -1.97527,0.85316 -12.64535,-12.64535 m -2.15599,0.67244 12.82028,12.82028 m -1.98106,0.84737 -12.93791,-12.93791 m -2.08527,0.74316 13.04213,13.04212 m -1.98106,0.84737 -13.14633,-13.14633 m -2.08526,0.74317 13.25053,13.25053 m -1.98106,0.84737 -13.35474,-13.35474 m -2.08526,0.74317 13.45895,13.45894 m -1.98106,0.84737 -13.56315,-13.56315 m -2.03897,0.78946 13.62106,13.62106 m -1.98106,0.84737 -13.66247,-13.66247 m -2.02246,0.80596 13.70387,13.70388 m -1.99417,0.83425 -13.73217,-13.73217 m -2.02246,0.80596 13.72861,13.72861 m -2.02603,0.8024 -13.72505,-13.72505 m -2.02246,0.80597 13.72148,13.72148 m -2.02602,0.8024 -13.66787,-13.66786 m -1.96633,0.86209 13.60817,13.60817 m -2.02603,0.8024 -13.54848,-13.54848 m -1.96633,0.8621 13.47291,13.4729 m -2.06058,0.76786 -13.37866,-13.37867 m -1.96634,0.8621 13.28442,13.28442 m -2.06057,0.76785 -13.1727,-13.1727 m -1.91586,0.91257 13.02798,13.02798 m -2.06058,0.76785 -12.88326,-12.88326 m -1.91586,0.91257 12.73855,12.73854 m -2.07436,0.75407 -12.58004,-12.58005 m -1.91586,0.91257 12.39691,12.39691 m -2.09901,0.72943 -12.20585,-12.20585 m -1.87023,0.95819 11.97708,11.97708 m -2.099,0.72943 -11.74831,-11.74832 m -1.87024,0.9582 11.51955,11.51955 m -2.099,0.72942 -11.29078,-11.29078 m -1.87024,0.95819 11.05972,11.05972 m -2.14199,0.68644 -10.76949,-10.76949 m -1.828791,0.99963 10.456291,10.4563 m -2.14199,0.68643 -10.143092,-10.14309 m -1.828791,0.99963 9.829903,9.8299 m -2.14199,0.68644 -9.516705,-9.5167 m -1.816141,1.01228 9.190856,9.19086 m -2.14199,0.68644 -8.823885,-8.82389 m -1.775018,1.05341 8.427398,8.4274 m -2.190404,0.63802 -8.012012,-8.01201 m -1.775018,1.05341 7.596626,7.59663 m -2.190405,0.63802 -7.181239,-7.18124 m -1.775018,1.05341 6.765853,6.76585 m -2.190404,0.63802 -6.350467,-6.35046 m -1.775018,1.05341 5.935081,5.93508 m -2.195459,0.63297 -5.47328,-5.47328 m -1.712049,1.11637 4.939984,4.93999 m -2.245343,0.58308 -4.406689,-4.40669 m -1.712049,1.11638 3.873393,3.87339 m -2.245344,0.58309 -3.340097,-3.3401 m -1.711133,1.11729 2.805887,2.80589 m -2.245345,0.58308 -2.22247,-2.22247 m -1.661927,1.1665 1.639053,1.63906"
             id="path6571" />
        </g>
      </g>
      <g
         transform="matrix(0.69819195,0,0,0.67807385,1.7776879,1.7560064)"
         style="fill:#000000;fill-opacity:1;stroke:none;stroke-width:0.53149611;stroke-miterlimit:4;stroke-dasharray:none;stroke-opacity:0.15686275"
         id="g6573">
        <g
           style="fill:#000000;fill-opacity:1;stroke:none;stroke-width:0.53149611;stroke-miterlimit:4;stroke-dasharray:none;stroke-opacity:0.15686275"
           id="g6575">
          <path
             inkscape:connector-curvature="0"
             d="m 214.833,151.986 c -71.861,12.356 -113.435,44.23 -113.846,44.551 -0.363,0.282 -0.486,0.775 -0.3,1.195 0.163,0.366 0.524,0.594 0.914,0.594 0.058,0 0.116,-0.005 0.175,-0.016 1.198,-0.213 2.709,-0.442 4.507,-0.716 16.795,-2.555 61.408,-9.34 109.304,-43.812 0.378,-0.271 0.519,-0.769 0.338,-1.198 -0.179,-0.428 -0.625,-0.679 -1.092,-0.598 z"
             id="path6577"
             style="fill:#000000;fill-opacity:1;stroke:none;stroke-width:0.53149611;stroke-miterlimit:4;stroke-dasharray:none;stroke-opacity:0.15686275" />
          <path
             inkscape:connector-curvature="0"
             style="fill:#000000;fill-opacity:1;stroke:none;stroke-width:0.53149611;stroke-miterlimit:4;stroke-dasharray:none;stroke-opacity:0.15686275"
             d="m 215.89492,153.34305 -1.30928,-1.30928 m -2.37062,0.45781 2.13856,2.13856 m -1.67596,1.15247 -2.83322,-2.83322 m -2.37062,0.45781 3.52787,3.52787 m -1.67597,1.15246 -4.22251,-4.22252 m -2.37062,0.45781 4.91717,4.91717 m -1.7013,1.12712 -5.54022,-5.54021 m -2.28964,0.53878 6.0912,6.0912 m -1.73866,1.08977 -6.64219,-6.64219 m -2.28965,0.53878 7.19317,7.19317 m -1.73866,1.08977 -7.74415,-7.74416 m -2.27777,0.55066 8.26279,8.2628 m -1.80079,1.02763 -8.67739,-8.67739 m -2.21538,0.61304 9.09197,9.09198 m -1.8008,1.02762 -9.50656,-9.50655 m -2.21538,0.61304 9.92114,9.92114 m -1.83231,0.99611 -10.30422,-10.30421 m -2.15374,0.67468 10.59565,10.59566 m -1.8623,0.96612 -10.88039,-10.88038 m -2.14703,0.68139 11.16511,11.16511 m -1.86231,0.96612 -11.44983,-11.44983 m -2.14703,0.68139 11.67658,11.67658 m -1.9231,0.90533 -11.84818,-11.84818 m -2.08392,0.74451 12.00901,12.00901 m -1.92309,0.90533 -12.16983,-12.16982 m -2.08391,0.74451 12.29143,12.29143 m -1.98305,0.84537 -12.39229,-12.39228 m -2.02697,0.80146 12.43621,12.4362 m -1.98306,0.84538 -12.4786,-12.4786 m -2.02544,0.80298 12.46769,12.46769 m -2.06991,0.75852 -12.42323,-12.42323 m -1.99646,0.83196 12.34978,12.34979 m -2.06991,0.75852 -12.22667,-12.22668 m -1.94681,0.88162 12.10358,12.10358 m -2.06991,0.75851 -11.98047,-11.98046 m -1.9468,0.88162 11.85736,11.85736 m -2.10518,0.72325 -11.69898,-11.69898 m -1.94681,0.88162 11.46335,11.46335 m -2.18243,0.646 -11.22772,-11.22772 m -1.94352,0.8849 10.98881,10.98881 m -2.18243,0.646 -10.65884,-10.65884 m -1.85247,0.97596 10.32888,10.32888 m -2.18845,0.63997 -9.99289,-9.99289 m -1.85246,0.97597 9.5585,9.5585 m -2.28684,0.54159 -9.12413,-9.12413 m -1.85246,0.97596 8.68975,8.68975 m -2.28685,0.54158 -8.24837,-8.24837 m -1.76994,1.05849 7.73147,7.73147 m -2.36383,0.4646 -7.13758,-7.13759 m -1.76994,1.05849 6.53018,6.53019 m -2.37733,0.45109 -5.92279,-5.92279 m -1.76994,1.05848 5.31539,5.3154 m -2.42108,0.40734 -4.5957,-4.5957 m -1.68147,1.14696 3.83707,3.83707 m -2.44009,0.38834 -3.07845,-3.07845 m -1.68147,1.14695 2.31947,2.31947 m -2.44069,0.38774 -1.50231,-1.5023"
             id="path6579" />
        </g>
      </g>
      <g
         transform="matrix(0.69819195,0,0,0.67807385,1.7776879,1.7560064)"
         style="fill:#000000;fill-opacity:1;stroke:none;stroke-width:0.53149611;stroke-miterlimit:4;stroke-dasharray:none;stroke-opacity:0.15686275"
         id="g6581">
        <g
           style="fill:#000000;fill-opacity:1;stroke:none;stroke-width:0.53149611;stroke-miterlimit:4;stroke-dasharray:none;stroke-opacity:0.15686275"
           id="g6583">
          <path
             inkscape:connector-curvature="0"
             d="m 63.941,65.803 c 0.029,0 0.06,-10e-4 0.089,-0.004 39.656,-3.546 95.132,-35.891 95.688,-36.217 0.396,-0.232 0.583,-0.705 0.453,-1.146 -0.13,-0.439 -0.514,-0.717 -1.002,-0.716 -37.467,1.612 -69.726,13.833 -95.879,36.324 -0.33,0.283 -0.438,0.747 -0.27,1.147 0.157,0.374 0.522,0.612 0.921,0.612 z"
             id="path6585"
             style="fill:#000000;fill-opacity:1;stroke:none;stroke-width:0.53149611;stroke-miterlimit:4;stroke-dasharray:none;stroke-opacity:0.15686275" />
          <path
             inkscape:connector-curvature="0"
             style="fill:#000000;fill-opacity:1;stroke:none;stroke-width:0.53149611;stroke-miterlimit:4;stroke-dasharray:none;stroke-opacity:0.15686275"
             d="m 159.85555,29.421438 -1.62646,-1.626463 m -2.61948,0.208949 2.47733,2.477321 m -1.82324,1.005194 -3.27356,-3.273565 m -2.61948,0.20895 4.06981,4.069808 m -1.82324,1.005194 -4.86605,-4.866052 m -2.60388,0.224546 5.6467,5.646699 m -1.8516,0.976827 -6.23928,-6.239276 m -2.44417,0.38425 6.81477,6.814774 m -1.86868,0.959747 -7.39027,-7.390272 m -2.44418,0.38425 7.96577,7.96577 m -1.86868,0.959747 -8.54127,-8.541268 m -2.3382,0.490222 9.00937,9.009375 m -1.91729,0.91113 -9.37202,-9.372015 m -2.27994,0.548489 9.73466,9.734656 m -1.9173,0.91113 -10.09729,-10.097296 m -2.27994,0.548489 10.45994,10.459937 m -1.9173,0.91113 -10.81752,-10.81752 m -2.12535,0.703077 11.02557,11.025574 m -1.92944,0.898979 -11.22148,-11.221477 m -2.12535,0.703077 11.36482,11.364821 m -1.98201,0.84642 -11.50816,-11.508164 m -2.12535,0.703076 11.6515,11.651508 m -1.982,0.84642 -11.75736,-11.75736 m -1.97922,0.84921 11.75457,11.75457 m -1.98201,0.84642 -11.75178,-11.751781 m -1.97922,0.84921 11.749,11.748991 m -2.04015,0.788277 -11.688063,-11.688058 m -1.979218,0.84921 11.595121,11.59512 M 106.10584,54.867687 94.648309,43.410152 M 92.807801,44.39807 104.03369,55.623958 M 101.96153,56.38023 90.967293,45.385989 m -1.84051,0.987918 10.762595,10.762595 M 97.817223,57.892773 87.286275,47.361825 m -1.84051,0.987918 10.299302,10.299302 m -2.160446,0.667981 -9.948461,-9.948461 m -1.708335,1.120092 9.491299,9.491299 m -2.165496,0.662931 -9.034138,-9.034138 m -1.708335,1.120092 8.559614,8.559614 M 84.821827,61.86794 76.80282,53.848933 m -1.708335,1.120092 7.4784,7.4784 m -2.248943,0.579485 -6.937793,-6.937793 m -1.58224,1.246187 6.202277,6.202277 m -2.35721,0.471217 -5.426989,-5.426989 m -1.581922,1.246505 4.6517,4.6517 m -2.400538,0.427889 -3.833083,-3.833083 m -1.581922,1.246505 2.911694,2.911694 M 65.884604,65.558135 63.8943,63.567831"
             id="path6587" />
        </g>
      </g>
    </g>
  </g>
</svg>
