<?xml version="1.0" encoding="UTF-8" standalone="no"?>
<!-- Created with Inkscape (http://www.inkscape.org/) -->

<svg
   xmlns:dc="http://purl.org/dc/elements/1.1/"
   xmlns:cc="http://creativecommons.org/ns#"
   xmlns:rdf="http://www.w3.org/1999/02/22-rdf-syntax-ns#"
   xmlns:svg="http://www.w3.org/2000/svg"
   xmlns="http://www.w3.org/2000/svg"
   xmlns:sodipodi="http://sodipodi.sourceforge.net/DTD/sodipodi-0.dtd"
   xmlns:inkscape="http://www.inkscape.org/namespaces/inkscape"
   width="591"
   height="354"
   viewBox="0 0 591 354"
   id="svg3881"
   version="1.1"
   inkscape:version="0.91 r13725"
   sodipodi:docname="logov3_long.svg"
   inkscape:export-filename="C:\Users\miammiam-06\Dropbox\Syntonie (1)\Graphisme\LOGO_V3\logov3_longHD.png"
   inkscape:export-xdpi="300"
   inkscape:export-ydpi="300">
  <defs
     id="defs3883" />
  <sodipodi:namedview
     id="base"
     pagecolor="#ffffff"
     bordercolor="#666666"
     borderopacity="1.0"
     inkscape:pageopacity="1"
     inkscape:pageshadow="2"
     inkscape:zoom="0.98994949"
     inkscape:cx="119.69625"
     inkscape:cy="288.76604"
     inkscape:document-units="px"
     inkscape:current-layer="layer2"
     showgrid="false"
     units="px"
     inkscape:window-width="822"
     inkscape:window-height="433"
     inkscape:window-x="96"
     inkscape:window-y="334"
     inkscape:window-maximized="0" />
  <metadata
     id="metadata3886">
    <rdf:RDF>
      <cc:Work
         rdf:about="">
        <dc:format>image/svg+xml</dc:format>
        <dc:type
           rdf:resource="http://purl.org/dc/dcmitype/StillImage" />
        <dc:title />
      </cc:Work>
    </rdf:RDF>
  </metadata>
  <g
     inkscape:groupmode="layer"
     id="layer2"
     inkscape:label="couleur"
     style="display:none">
    <g
       transform="translate(0,-698.36217)"
       id="g3431">
      <g
         style="fill:#ffd821;fill-opacity:1;stroke:none;stroke-width:0.53149611;stroke-miterlimit:4;stroke-dasharray:none;stroke-opacity:0.15686275"
         id="g3811-9-8-6"
         transform="matrix(0.80597775,0,0,0.78275387,-25.676926,786.89299)">
        <g
           style="fill:#ffd821;fill-opacity:1;stroke:none;stroke-width:0.53149611;stroke-miterlimit:4;stroke-dasharray:none;stroke-opacity:0.15686275"
           id="g3962-9-5-6">
          <path
             style="fill:#ffd821;fill-opacity:1;stroke:none;stroke-width:0.53149611;stroke-miterlimit:4;stroke-dasharray:none;stroke-opacity:0.15686275"
             id="path2990-4-0-3"
             d="m 50.732,113.164 c 0.104,0 0.21,-0.017 0.314,-0.051 31.066,-10.277 148.096,-59.414 163.875,-68.208 0.412,-0.23 0.607,-0.717 0.469,-1.168 -0.14,-0.452 -0.595,-0.736 -1.045,-0.702 -55.572,4.977 -97.273,23.301 -122.471,37.797 -27.329,15.721 -41.719,30.49 -41.861,30.638 -0.319,0.331 -0.372,0.837 -0.127,1.227 0.186,0.297 0.51,0.467 0.846,0.467 z"
             inkscape:connector-curvature="0" />
          <path
             style="fill:#ffd821;fill-opacity:1;stroke:none;stroke-width:0.53149611;stroke-miterlimit:4;stroke-dasharray:none;stroke-opacity:0.15686275"
             d="m 215.07673,44.727939 -1.60095,-1.600953 m -2.55776,0.270675 2.32678,2.326774 m -1.89972,0.928706 -2.98481,-2.984805 m -2.55775,0.270676 3.64283,3.642835 m -1.89972,0.928706 -4.27679,-4.276791 m -2.48476,0.343662 4.86183,4.861834 m -1.92429,0.904133 -5.42231,-5.422304 m -2.48476,0.343663 5.95413,5.954128 m -1.95294,0.875488 -6.46312,-6.463121 m -2.4165,0.411927 6.92668,6.926681 m -1.95294,0.875487 -7.39024,-7.390242 m -2.4165,0.411928 7.8538,7.853802 m -1.95294,0.875487 -8.29408,-8.294076 m -2.35251,0.475913 8.69365,8.69365 m -1.95294,0.875487 -9.09323,-9.093225 m -2.35251,0.475913 9.47959,9.479592 m -1.98217,0.846253 -9.81215,-9.81215 m -2.26435,0.564082 10.09432,10.09432 m -1.98217,0.846253 -10.37649,-10.376491 m -2.26435,0.564083 10.65866,10.658661 m -1.98217,0.846252 -10.94083,-10.940831 m -2.26435,0.564083 11.22301,11.223001 m -1.98218,0.846252 -11.50517,-11.505171 m -2.26435,0.564082 11.78735,11.787342 M 168.29238,65.825842 156.298,53.831461 m -2.15764,0.670791 12.16985,12.169843 m -1.98218,0.846253 -12.3453,-12.345304 m -2.15764,0.670791 12.52077,12.520765 m -1.98218,0.846253 -12.69622,-12.696226 m -2.15764,0.670791 12.87169,12.871688 m -1.98218,0.846252 -13.04714,-13.047149 m -2.13447,0.693965 13.19944,13.199436 m -1.98218,0.846253 -13.2796,-13.279603 m -2.06234,0.766086 13.35977,13.359769 m -1.98217,0.846253 -13.43994,-13.439936 m -2.06234,0.766086 13.5201,13.520103 m -1.98217,0.846252 -13.60027,-13.600269 m -2.06234,0.766086 13.68043,13.680436 m -1.98217,0.846252 -13.74965,-13.74965 m -1.97672,0.851705 13.74214,13.742147 m -2.00818,0.820247 -13.71069,-13.71069 m -1.97672,0.851705 13.67923,13.679233 m -2.00818,0.820248 -13.64777,-13.647776 m -1.97672,0.851704 13.61631,13.616319 m -2.00818,0.820248 -13.58486,-13.584862 m -1.94266,0.885764 13.51935,13.519346 m -2.00818,0.820248 -13.41055,-13.410544 m -1.89938,0.92905 13.30175,13.301742 M 120.4841,85.89981 107.29116,72.70687 m -1.89938,0.92905 13.08414,13.084138 m -2.00818,0.820247 -12.97534,-12.975336 m -1.88094,0.947485 12.8481,12.848099 M 112.45138,89.180801 99.7823,76.51172 M 97.953138,77.510985 110.4432,90.001049 M 108.43502,90.821296 96.123976,78.51025 m -1.829161,0.999266 12.132025,12.132028 m -2.00818,0.820248 -11.953007,-11.95301 M 90.681158,81.552714 102.41048,93.28204 M 100.4023,94.102288 88.918018,82.618001 m -1.763141,1.065286 11.239248,11.239248 M 96.385946,95.742783 85.391737,84.748574 m -1.763141,1.065287 10.74917,10.74917 M 92.369587,97.383279 81.878465,86.892157 m -1.70102,1.127407 10.183963,10.183963 m -2.008179,0.820247 -9.876804,-9.876804 m -1.701021,1.127407 9.552812,9.552812 m -2.036503,0.791921 -9.21733,-9.217327 m -1.685874,1.142553 8.866701,8.866704 m -2.036503,0.79192 -8.474019,-8.474017 m -1.64382,1.184606 8.081336,8.081341 m -2.036503,0.79192 -7.688654,-7.688654 m -1.64382,1.184606 7.295971,7.295968 m -2.036503,0.79193 -6.8555,-6.855502 m -1.590997,1.23743 6.409993,6.409992 m -2.036502,0.79193 -5.964487,-5.96449 m -1.577955,1.25047 5.497676,5.49768 m -2.078944,0.74948 -4.941512,-4.94151 m -1.522781,1.30564 4.385348,4.38535 m -2.078944,0.74949 -3.829185,-3.82919 m -1.52278,1.30565 3.273021,3.27302 m -2.078945,0.74948 -2.716857,-2.71686 m -1.449021,1.37941 2.086933,2.08693 m -2.078944,0.74949 -1.429063,-1.42907"
             id="path3965-5-5-7"
             inkscape:connector-curvature="0" />
        </g>
      </g>
      <g
         id="g3816-8-9-2"
         style="fill:#008000;fill-opacity:1;stroke:none;stroke-width:0.53149611;stroke-miterlimit:4;stroke-dasharray:none;stroke-opacity:0.15686275"
         transform="matrix(0.80597775,0,0,0.78275387,-25.676926,786.89299)">
        <g
           id="g4034-2-4-3"
           style="fill:#008000;fill-opacity:1;stroke:none;stroke-width:0.53149611;stroke-miterlimit:4;stroke-dasharray:none;stroke-opacity:0.15686275">
          <path
             style="fill:#008000;fill-opacity:1;stroke:none;stroke-width:0.53149611;stroke-miterlimit:4;stroke-dasharray:none;stroke-opacity:0.15686275"
             id="path2992-4-1-1"
             d="m 231.639,75.065 c -0.134,-0.457 -0.581,-0.756 -1.047,-0.713 -93.968,8.29 -179.505,70.905 -180.358,71.536 -0.372,0.275 -0.506,0.771 -0.324,1.197 0.159,0.373 0.524,0.607 0.919,0.607 0.056,0 0.113,-0.005 0.17,-0.015 30.768,-5.3 116.163,-37.664 180.147,-71.445 0.422,-0.222 0.628,-0.711 0.493,-1.167 z"
             inkscape:connector-curvature="0" />
          <path
             id="path4037-3-8-2"
             d="m 231.60269,75.712732 -1.32712,-1.327124 m -2.55686,0.271567 2.1965,2.196501 m -1.87923,0.949201 -2.87413,-2.874136 m -2.55686,0.271566 3.55177,3.551772 m -1.87923,0.949202 -4.17563,-4.175631 m -2.4788,0.349627 4.77521,4.775205 m -1.87923,0.949202 -5.37478,-5.374779 m -2.46134,0.367086 5.9569,5.956895 m -1.87923,0.949202 -6.45462,-6.454623 m -2.37695,0.451474 6.95235,6.95235 m -1.87923,0.949202 -7.45008,-7.450078 m -2.37695,0.451474 7.94781,7.947806 m -1.87923,0.949202 -8.44553,-8.445534 m -2.37696,0.451473 8.94326,8.943262 m -1.90047,0.927951 -9.41974,-9.419739 m -2.26924,0.559183 9.76055,9.760551 m -1.92844,0.899995 -10.0943,-10.094306 m -2.26219,0.566241 10.42806,10.428061 m -1.92843,0.899994 -10.76182,-10.761815 m -2.26218,0.56624 11.09557,11.09557 m -1.92843,0.899995 -11.42933,-11.429325 m -2.26219,0.56624 11.76308,11.76308 m -1.92843,0.899995 -12.04669,-12.04669 m -2.16663,0.661798 12.28489,12.284887 m -1.92843,0.899995 -12.52309,-12.523085 m -2.16663,0.661798 12.76128,12.761282 m -1.92843,0.899995 -12.99948,-12.99948 m -2.16663,0.661798 13.23768,13.237675 m -1.97009,0.85834 -13.43422,-13.434218 m -2.16421,0.664214 13.62694,13.626944 m -1.97149,0.85693 -13.74128,-13.741279 m -2.08583,0.742596 13.85561,13.855613 m -1.97149,0.85694 -13.96995,-13.969958 m -2.08584,0.742595 14.0843,14.084293 m -1.9715,0.85694 -14.19863,-14.198637 m -2.08583,0.742595 14.31297,14.312972 m -1.97149,0.85693 -14.42731,-14.427307 m -2.04751,0.780915 14.50333,14.503332 m -1.9715,0.85693 -14.54846,-14.548456 m -2.01662,0.811807 14.59359,14.593589 m -1.97149,0.85693 -14.63872,-14.638712 m -2.01662,0.811807 14.65589,14.655885 m -2.01244,0.81599 -14.66007,-14.660068 m -2.01662,0.811806 14.66425,14.664252 m -2.01244,0.81599 -14.65669,-14.6567 m -1.95667,0.87176 14.60093,14.60093 m -2.01244,0.81599 -14.54517,-14.54517 m -1.95667,0.87176 14.4894,14.4894 m -2.01243,0.81599 -14.43364,-14.43364 m -1.95667,0.87176 14.37787,14.37787 m -2.01244,0.81599 -14.3221,-14.3221 m -1.95374,0.87468 14.2634,14.26341 m -2.01243,0.81598 -14.15521,-14.1552 m -1.90424,0.92418 14.04701,14.04702 m -2.05535,0.77307 -13.89591,-13.8959 m -1.90424,0.92418 13.74477,13.74477 m -2.05537,0.77305 -13.59365,-13.59364 m -1.90424,0.92419 13.44251,13.44251 m -2.05537,0.77305 -13.28057,-13.28057 m -1.85801,0.97042 13.0832,13.0832 m -2.05538,0.77305 -12.88582,-12.88583 m -1.858011,0.97042 12.688461,12.68846 m -2.05538,0.77305 -12.491088,-12.49109 m -1.858008,0.97042 12.293726,12.29372 m -2.05538,0.77305 -12.096353,-12.09635 m -1.82394,1.00449 11.847703,11.8477 m -2.10622,0.72221 -11.558414,-11.55842 m -1.816931,1.0115 11.26913,11.26913 m -2.10622,0.72221 -10.979842,-10.97984 m -1.816931,1.01149 10.690554,10.69056 m -2.106219,0.7222 -10.401266,-10.40126 m -1.767904,1.06052 10.06295,10.06295 m -2.106218,0.72221 -9.721624,-9.72162 m -1.764893,1.06353 9.380297,9.3803 m -2.106219,0.72221 -9.038971,-9.03898 m -1.764892,1.06354 8.689082,8.68908 m -2.17676,0.65167 -8.277215,-8.27722 m -1.764892,1.06354 7.865347,7.86535 m -2.176761,0.65166 -7.453479,-7.45348 m -1.764893,1.06354 7.041612,7.04161 m -2.176761,0.65167 -6.622739,-6.62274 m -1.705692,1.12273 6.151671,6.15167 m -2.17676,0.65167 -5.680604,-5.6806 m -1.705693,1.12273 5.209536,5.20954 m -2.240793,0.58763 -4.674435,-4.67444 m -1.705693,1.12274 4.120138,4.12014 m -2.25999,0.56843 -3.565841,-3.56584 m -1.680017,1.14841 2.948133,2.94814 m -2.348898,0.47953 -2.259101,-2.2591 m -1.626141,1.20228 1.536344,1.53635"
             style="fill:#008000;fill-opacity:1;stroke:none;stroke-width:0.53149611;stroke-miterlimit:4;stroke-dasharray:none;stroke-opacity:0.15686275"
             inkscape:connector-curvature="0" />
        </g>
      </g>
      <g
         id="g3821-7-5-0"
         style="fill:#1f11e0;fill-opacity:0.83921569;stroke:none;stroke-width:0.53149611;stroke-miterlimit:4;stroke-dasharray:none;stroke-opacity:0.15686275"
         transform="matrix(0.80597775,0,0,0.78275387,-25.676926,786.89299)">
        <g
           id="g4040-0-4-4"
           style="fill:#1f11e0;fill-opacity:0.83921569;stroke:none;stroke-width:0.53149611;stroke-miterlimit:4;stroke-dasharray:none;stroke-opacity:0.15686275">
          <path
             style="fill:#1f11e0;fill-opacity:0.83921569;stroke:none;stroke-width:0.53149611;stroke-miterlimit:4;stroke-dasharray:none;stroke-opacity:0.15686275"
             id="path2994-6-1-6"
             d="m 233.68,111.526 c -0.154,-0.453 -0.616,-0.731 -1.081,-0.669 -95.768,12.883 -167.857,65.731 -168.574,66.263 -0.382,0.283 -0.512,0.797 -0.31,1.228 0.167,0.357 0.524,0.575 0.905,0.575 0.078,0 0.157,-0.009 0.236,-0.028 91.123,-22.149 167.612,-65.742 168.374,-66.18 0.416,-0.238 0.603,-0.736 0.45,-1.189 z"
             inkscape:connector-curvature="0" />
          <path
             id="path4043-1-4-4"
             d="m 233.67653,111.72769 -0.814,-0.81399 m -2.51971,0.30871 1.97948,1.97948 m -1.84095,0.98748 -2.57272,-2.57273 m -2.4342,0.39424 3.16597,3.16596 m -1.84095,0.98748 -3.75921,-3.7592 m -2.43419,0.39423 4.35245,4.35245 m -1.84095,0.98748 -4.94569,-4.94569 m -2.43419,0.39424 5.53893,5.53893 m -1.84095,0.98747 -6.06118,-6.06118 m -2.32807,0.50036 6.50399,6.50398 m -1.88579,0.94265 -6.94627,-6.94627 m -2.32806,0.50036 7.38855,7.38855 m -1.88579,0.94264 -7.83083,-7.83083 m -2.32806,0.50036 8.27311,8.27311 m -1.88579,0.94264 -8.71539,-8.71539 m -2.29607,0.53236 9.12567,9.12568 m -1.88578,0.94264 -9.47612,-9.47613 m -2.23624,0.5922 9.79929,9.79929 m -1.92927,0.89916 -10.10625,-10.10626 m -2.23623,0.5922 10.41321,10.41321 m -1.92927,0.89916 -10.72017,-10.72018 m -2.23624,0.5922 11.02714,11.02714 m -1.92927,0.89916 -11.33105,-11.33106 m -2.15599,0.67244 11.55778,11.55777 m -1.92928,0.89916 -11.78448,-11.78449 m -2.15599,0.67245 12.0112,12.0112 m -1.92926,0.89915 -12.23792,-12.23791 m -2.15599,0.67244 12.46464,12.46463 m -1.97527,0.85316 -12.64535,-12.64535 m -2.15599,0.67244 12.82028,12.82028 m -1.98106,0.84737 -12.93791,-12.93791 m -2.08527,0.74316 13.04213,13.04212 m -1.98106,0.84737 -13.14633,-13.14633 m -2.08526,0.74317 13.25053,13.25053 m -1.98106,0.84737 -13.35474,-13.35474 m -2.08526,0.74317 13.45895,13.45894 m -1.98106,0.84737 -13.56315,-13.56315 m -2.03897,0.78946 13.62106,13.62106 m -1.98106,0.84737 -13.66247,-13.66247 m -2.02246,0.80596 13.70387,13.70388 m -1.99417,0.83425 -13.73217,-13.73217 m -2.02246,0.80596 13.72861,13.72861 m -2.02603,0.8024 -13.72505,-13.72505 m -2.02246,0.80597 13.72148,13.72148 m -2.02602,0.8024 -13.66787,-13.66786 m -1.96633,0.86209 13.60817,13.60817 m -2.02603,0.8024 -13.54848,-13.54848 m -1.96633,0.8621 13.47291,13.4729 m -2.06058,0.76786 -13.37866,-13.37867 m -1.96634,0.8621 13.28442,13.28442 m -2.06057,0.76785 -13.1727,-13.1727 m -1.91586,0.91257 13.02798,13.02798 m -2.06058,0.76785 -12.88326,-12.88326 m -1.91586,0.91257 12.73855,12.73854 m -2.07436,0.75407 -12.58004,-12.58005 m -1.91586,0.91257 12.39691,12.39691 m -2.09901,0.72943 -12.20585,-12.20585 m -1.87023,0.95819 11.97708,11.97708 m -2.099,0.72943 -11.74831,-11.74832 m -1.87024,0.9582 11.51955,11.51955 m -2.099,0.72942 -11.29078,-11.29078 m -1.87024,0.95819 11.05972,11.05972 m -2.14199,0.68644 -10.76949,-10.76949 m -1.828791,0.99963 10.456291,10.4563 m -2.14199,0.68643 -10.143092,-10.14309 m -1.828791,0.99963 9.829903,9.8299 m -2.14199,0.68644 -9.516705,-9.5167 m -1.816141,1.01228 9.190856,9.19086 m -2.14199,0.68644 -8.823885,-8.82389 m -1.775018,1.05341 8.427398,8.4274 m -2.190404,0.63802 -8.012012,-8.01201 m -1.775018,1.05341 7.596626,7.59663 m -2.190405,0.63802 -7.181239,-7.18124 m -1.775018,1.05341 6.765853,6.76585 m -2.190404,0.63802 -6.350467,-6.35046 m -1.775018,1.05341 5.935081,5.93508 m -2.195459,0.63297 -5.47328,-5.47328 m -1.712049,1.11637 4.939984,4.93999 m -2.245343,0.58308 -4.406689,-4.40669 m -1.712049,1.11638 3.873393,3.87339 m -2.245344,0.58309 -3.340097,-3.3401 m -1.711133,1.11729 2.805887,2.80589 m -2.245345,0.58308 -2.22247,-2.22247 m -1.661927,1.1665 1.639053,1.63906"
             style="fill:#1f11e0;fill-opacity:0.83921569;stroke:none;stroke-width:0.53149611;stroke-miterlimit:4;stroke-dasharray:none;stroke-opacity:0.15686275"
             inkscape:connector-curvature="0" />
        </g>
      </g>
      <g
         id="g3826-5-6-2"
         style="fill:#800080;fill-opacity:0.70588235;stroke:none;stroke-width:0.53149611;stroke-miterlimit:4;stroke-dasharray:none;stroke-opacity:0.15686275"
         transform="matrix(0.80597775,0,0,0.78275387,-25.676926,786.89299)">
        <g
           id="g4046-7-0-4"
           style="fill:#800080;fill-opacity:0.70588235;stroke:none;stroke-width:0.53149611;stroke-miterlimit:4;stroke-dasharray:none;stroke-opacity:0.15686275">
          <path
             style="fill:#800080;fill-opacity:0.70588235;stroke:none;stroke-width:0.53149611;stroke-miterlimit:4;stroke-dasharray:none;stroke-opacity:0.15686275"
             id="path2996-7-8-4"
             d="m 214.833,151.986 c -71.861,12.356 -113.435,44.23 -113.846,44.551 -0.363,0.282 -0.486,0.775 -0.3,1.195 0.163,0.366 0.524,0.594 0.914,0.594 0.058,0 0.116,-0.005 0.175,-0.016 1.198,-0.213 2.709,-0.442 4.507,-0.716 16.795,-2.555 61.408,-9.34 109.304,-43.812 0.378,-0.271 0.519,-0.769 0.338,-1.198 -0.179,-0.428 -0.625,-0.679 -1.092,-0.598 z"
             inkscape:connector-curvature="0" />
          <path
             id="path4049-1-4-6"
             d="m 215.89492,153.34305 -1.30928,-1.30928 m -2.37062,0.45781 2.13856,2.13856 m -1.67596,1.15247 -2.83322,-2.83322 m -2.37062,0.45781 3.52787,3.52787 m -1.67597,1.15246 -4.22251,-4.22252 m -2.37062,0.45781 4.91717,4.91717 m -1.7013,1.12712 -5.54022,-5.54021 m -2.28964,0.53878 6.0912,6.0912 m -1.73866,1.08977 -6.64219,-6.64219 m -2.28965,0.53878 7.19317,7.19317 m -1.73866,1.08977 -7.74415,-7.74416 m -2.27777,0.55066 8.26279,8.2628 m -1.80079,1.02763 -8.67739,-8.67739 m -2.21538,0.61304 9.09197,9.09198 m -1.8008,1.02762 -9.50656,-9.50655 m -2.21538,0.61304 9.92114,9.92114 m -1.83231,0.99611 -10.30422,-10.30421 m -2.15374,0.67468 10.59565,10.59566 m -1.8623,0.96612 -10.88039,-10.88038 m -2.14703,0.68139 11.16511,11.16511 m -1.86231,0.96612 -11.44983,-11.44983 m -2.14703,0.68139 11.67658,11.67658 m -1.9231,0.90533 -11.84818,-11.84818 m -2.08392,0.74451 12.00901,12.00901 m -1.92309,0.90533 -12.16983,-12.16982 m -2.08391,0.74451 12.29143,12.29143 m -1.98305,0.84537 -12.39229,-12.39228 m -2.02697,0.80146 12.43621,12.4362 m -1.98306,0.84538 -12.4786,-12.4786 m -2.02544,0.80298 12.46769,12.46769 m -2.06991,0.75852 -12.42323,-12.42323 m -1.99646,0.83196 12.34978,12.34979 m -2.06991,0.75852 -12.22667,-12.22668 m -1.94681,0.88162 12.10358,12.10358 m -2.06991,0.75851 -11.98047,-11.98046 m -1.9468,0.88162 11.85736,11.85736 m -2.10518,0.72325 -11.69898,-11.69898 m -1.94681,0.88162 11.46335,11.46335 m -2.18243,0.646 -11.22772,-11.22772 m -1.94352,0.8849 10.98881,10.98881 m -2.18243,0.646 -10.65884,-10.65884 m -1.85247,0.97596 10.32888,10.32888 m -2.18845,0.63997 -9.99289,-9.99289 m -1.85246,0.97597 9.5585,9.5585 m -2.28684,0.54159 -9.12413,-9.12413 m -1.85246,0.97596 8.68975,8.68975 m -2.28685,0.54158 -8.24837,-8.24837 m -1.76994,1.05849 7.73147,7.73147 m -2.36383,0.4646 -7.13758,-7.13759 m -1.76994,1.05849 6.53018,6.53019 m -2.37733,0.45109 -5.92279,-5.92279 m -1.76994,1.05848 5.31539,5.3154 m -2.42108,0.40734 -4.5957,-4.5957 m -1.68147,1.14696 3.83707,3.83707 m -2.44009,0.38834 -3.07845,-3.07845 m -1.68147,1.14695 2.31947,2.31947 m -2.44069,0.38774 -1.50231,-1.5023"
             style="fill:#800080;fill-opacity:0.70588235;stroke:none;stroke-width:0.53149611;stroke-miterlimit:4;stroke-dasharray:none;stroke-opacity:0.15686275"
             inkscape:connector-curvature="0" />
        </g>
      </g>
      <g
         id="g3831-7-6-6"
         style="fill:#d40000;fill-opacity:1;stroke:none;stroke-width:0.53149611;stroke-miterlimit:4;stroke-dasharray:none;stroke-opacity:0.15686275"
         transform="matrix(0.80597775,0,0,0.78275387,-25.676926,786.89299)">
        <g
           id="g4052-4-7-1"
           style="fill:#d40000;fill-opacity:1;stroke:none;stroke-width:0.53149611;stroke-miterlimit:4;stroke-dasharray:none;stroke-opacity:0.15686275">
          <path
             style="fill:#d40000;fill-opacity:1;stroke:none;stroke-width:0.53149611;stroke-miterlimit:4;stroke-dasharray:none;stroke-opacity:0.15686275"
             id="path2988-3-9-5"
             d="m 63.941,65.803 c 0.029,0 0.06,-10e-4 0.089,-0.004 39.656,-3.546 95.132,-35.891 95.688,-36.217 0.396,-0.232 0.583,-0.705 0.453,-1.146 -0.13,-0.439 -0.514,-0.717 -1.002,-0.716 -37.467,1.612 -69.726,13.833 -95.879,36.324 -0.33,0.283 -0.438,0.747 -0.27,1.147 0.157,0.374 0.522,0.612 0.921,0.612 z"
             inkscape:connector-curvature="0" />
          <path
             id="path4055-4-6-2"
             d="m 159.85555,29.421438 -1.62646,-1.626463 m -2.61948,0.208949 2.47733,2.477321 m -1.82324,1.005194 -3.27356,-3.273565 m -2.61948,0.20895 4.06981,4.069808 m -1.82324,1.005194 -4.86605,-4.866052 m -2.60388,0.224546 5.6467,5.646699 m -1.8516,0.976827 -6.23928,-6.239276 m -2.44417,0.38425 6.81477,6.814774 m -1.86868,0.959747 -7.39027,-7.390272 m -2.44418,0.38425 7.96577,7.96577 m -1.86868,0.959747 -8.54127,-8.541268 m -2.3382,0.490222 9.00937,9.009375 m -1.91729,0.91113 -9.37202,-9.372015 m -2.27994,0.548489 9.73466,9.734656 m -1.9173,0.91113 -10.09729,-10.097296 m -2.27994,0.548489 10.45994,10.459937 m -1.9173,0.91113 -10.81752,-10.81752 m -2.12535,0.703077 11.02557,11.025574 m -1.92944,0.898979 -11.22148,-11.221477 m -2.12535,0.703077 11.36482,11.364821 m -1.98201,0.84642 -11.50816,-11.508164 m -2.12535,0.703076 11.6515,11.651508 m -1.982,0.84642 -11.75736,-11.75736 m -1.97922,0.84921 11.75457,11.75457 m -1.98201,0.84642 -11.75178,-11.751781 m -1.97922,0.84921 11.749,11.748991 m -2.04015,0.788277 -11.688063,-11.688058 m -1.979218,0.84921 11.595121,11.59512 M 106.10584,54.867687 94.648309,43.410152 M 92.807801,44.39807 104.03369,55.623958 M 101.96153,56.38023 90.967293,45.385989 m -1.84051,0.987918 10.762595,10.762595 M 97.817223,57.892773 87.286275,47.361825 m -1.84051,0.987918 10.299302,10.299302 m -2.160446,0.667981 -9.948461,-9.948461 m -1.708335,1.120092 9.491299,9.491299 m -2.165496,0.662931 -9.034138,-9.034138 m -1.708335,1.120092 8.559614,8.559614 M 84.821827,61.86794 76.80282,53.848933 m -1.708335,1.120092 7.4784,7.4784 m -2.248943,0.579485 -6.937793,-6.937793 m -1.58224,1.246187 6.202277,6.202277 m -2.35721,0.471217 -5.426989,-5.426989 m -1.581922,1.246505 4.6517,4.6517 m -2.400538,0.427889 -3.833083,-3.833083 m -1.581922,1.246505 2.911694,2.911694 M 65.884604,65.558135 63.8943,63.567831"
             style="fill:#d40000;fill-opacity:1;stroke:none;stroke-width:0.53149611;stroke-miterlimit:4;stroke-dasharray:none;stroke-opacity:0.15686275"
             inkscape:connector-curvature="0" />
        </g>
      </g>
    </g>
  </g>
  <g
     inkscape:label="Calque 1"
     inkscape:groupmode="layer"
     id="layer1"
     transform="translate(0,-698.36217)">
    <g
       style="fill:#000000;fill-opacity:1;stroke:none;stroke-width:0.53149611;stroke-miterlimit:4;stroke-dasharray:none;stroke-opacity:0.15686275"
       id="g6549"
       transform="matrix(0.78962783,0,0,0.76687504,-21.855406,787.33315)">
      <g
         style="fill:#000000;fill-opacity:1;stroke:none;stroke-width:0.53149611;stroke-miterlimit:4;stroke-dasharray:none;stroke-opacity:0.15686275"
         id="g6551">
        <path
           style="fill:#000000;fill-opacity:1;stroke:none;stroke-width:0.53149611;stroke-miterlimit:4;stroke-dasharray:none;stroke-opacity:0.15686275"
           id="path6553"
           d="m 50.732,113.164 c 0.104,0 0.21,-0.017 0.314,-0.051 31.066,-10.277 148.096,-59.414 163.875,-68.208 0.412,-0.23 0.607,-0.717 0.469,-1.168 -0.14,-0.452 -0.595,-0.736 -1.045,-0.702 -55.572,4.977 -97.273,23.301 -122.471,37.797 -27.329,15.721 -41.719,30.49 -41.861,30.638 -0.319,0.331 -0.372,0.837 -0.127,1.227 0.186,0.297 0.51,0.467 0.846,0.467 z"
           inkscape:connector-curvature="0" />
        <path
           style="fill:#000000;fill-opacity:1;stroke:none;stroke-width:0.53149611;stroke-miterlimit:4;stroke-dasharray:none;stroke-opacity:0.15686275"
           d="m 215.07673,44.727939 -1.60095,-1.600953 m -2.55776,0.270675 2.32678,2.326774 m -1.89972,0.928706 -2.98481,-2.984805 m -2.55775,0.270676 3.64283,3.642835 m -1.89972,0.928706 -4.27679,-4.276791 m -2.48476,0.343662 4.86183,4.861834 m -1.92429,0.904133 -5.42231,-5.422304 m -2.48476,0.343663 5.95413,5.954128 m -1.95294,0.875488 -6.46312,-6.463121 m -2.4165,0.411927 6.92668,6.926681 m -1.95294,0.875487 -7.39024,-7.390242 m -2.4165,0.411928 7.8538,7.853802 m -1.95294,0.875487 -8.29408,-8.294076 m -2.35251,0.475913 8.69365,8.69365 m -1.95294,0.875487 -9.09323,-9.093225 m -2.35251,0.475913 9.47959,9.479592 m -1.98217,0.846253 -9.81215,-9.81215 m -2.26435,0.564082 10.09432,10.09432 m -1.98217,0.846253 -10.37649,-10.376491 m -2.26435,0.564083 10.65866,10.658661 m -1.98217,0.846252 -10.94083,-10.940831 m -2.26435,0.564083 11.22301,11.223001 m -1.98218,0.846252 -11.50517,-11.505171 m -2.26435,0.564082 11.78735,11.787342 M 168.29238,65.825842 156.298,53.831461 m -2.15764,0.670791 12.16985,12.169843 m -1.98218,0.846253 -12.3453,-12.345304 m -2.15764,0.670791 12.52077,12.520765 m -1.98218,0.846253 -12.69622,-12.696226 m -2.15764,0.670791 12.87169,12.871688 m -1.98218,0.846252 -13.04714,-13.047149 m -2.13447,0.693965 13.19944,13.199436 m -1.98218,0.846253 -13.2796,-13.279603 m -2.06234,0.766086 13.35977,13.359769 m -1.98217,0.846253 -13.43994,-13.439936 m -2.06234,0.766086 13.5201,13.520103 m -1.98217,0.846252 -13.60027,-13.600269 m -2.06234,0.766086 13.68043,13.680436 m -1.98217,0.846252 -13.74965,-13.74965 m -1.97672,0.851705 13.74214,13.742147 m -2.00818,0.820247 -13.71069,-13.71069 m -1.97672,0.851705 13.67923,13.679233 m -2.00818,0.820248 -13.64777,-13.647776 m -1.97672,0.851704 13.61631,13.616319 m -2.00818,0.820248 -13.58486,-13.584862 m -1.94266,0.885764 13.51935,13.519346 m -2.00818,0.820248 -13.41055,-13.410544 m -1.89938,0.92905 13.30175,13.301742 M 120.4841,85.89981 107.29116,72.70687 m -1.89938,0.92905 13.08414,13.084138 m -2.00818,0.820247 -12.97534,-12.975336 m -1.88094,0.947485 12.8481,12.848099 M 112.45138,89.180801 99.7823,76.51172 M 97.953138,77.510985 110.4432,90.001049 M 108.43502,90.821296 96.123976,78.51025 m -1.829161,0.999266 12.132025,12.132028 m -2.00818,0.820248 -11.953007,-11.95301 M 90.681158,81.552714 102.41048,93.28204 M 100.4023,94.102288 88.918018,82.618001 m -1.763141,1.065286 11.239248,11.239248 M 96.385946,95.742783 85.391737,84.748574 m -1.763141,1.065287 10.74917,10.74917 M 92.369587,97.383279 81.878465,86.892157 m -1.70102,1.127407 10.183963,10.183963 m -2.008179,0.820247 -9.876804,-9.876804 m -1.701021,1.127407 9.552812,9.552812 m -2.036503,0.791921 -9.21733,-9.217327 m -1.685874,1.142553 8.866701,8.866704 m -2.036503,0.79192 -8.474019,-8.474017 m -1.64382,1.184606 8.081336,8.081341 m -2.036503,0.79192 -7.688654,-7.688654 m -1.64382,1.184606 7.295971,7.295968 m -2.036503,0.79193 -6.8555,-6.855502 m -1.590997,1.23743 6.409993,6.409992 m -2.036502,0.79193 -5.964487,-5.96449 m -1.577955,1.25047 5.497676,5.49768 m -2.078944,0.74948 -4.941512,-4.94151 m -1.522781,1.30564 4.385348,4.38535 m -2.078944,0.74949 -3.829185,-3.82919 m -1.52278,1.30565 3.273021,3.27302 m -2.078945,0.74948 -2.716857,-2.71686 m -1.449021,1.37941 2.086933,2.08693 m -2.078944,0.74949 -1.429063,-1.42907"
           id="path6555"
           inkscape:connector-curvature="0" />
      </g>
    </g>
    <g
       id="g6557"
       style="fill:#000000;fill-opacity:1;stroke:none;stroke-width:0.53149611;stroke-miterlimit:4;stroke-dasharray:none;stroke-opacity:0.15686275"
       transform="matrix(0.78962783,0,0,0.76687504,-21.855406,787.33315)">
      <g
         id="g6559"
         style="fill:#000000;fill-opacity:1;stroke:none;stroke-width:0.53149611;stroke-miterlimit:4;stroke-dasharray:none;stroke-opacity:0.15686275">
        <path
           style="fill:#000000;fill-opacity:1;stroke:none;stroke-width:0.53149611;stroke-miterlimit:4;stroke-dasharray:none;stroke-opacity:0.15686275"
           id="path6561"
           d="m 231.639,75.065 c -0.134,-0.457 -0.581,-0.756 -1.047,-0.713 -93.968,8.29 -179.505,70.905 -180.358,71.536 -0.372,0.275 -0.506,0.771 -0.324,1.197 0.159,0.373 0.524,0.607 0.919,0.607 0.056,0 0.113,-0.005 0.17,-0.015 30.768,-5.3 116.163,-37.664 180.147,-71.445 0.422,-0.222 0.628,-0.711 0.493,-1.167 z"
           inkscape:connector-curvature="0" />
        <path
           id="path6563"
           d="m 231.60269,75.712732 -1.32712,-1.327124 m -2.55686,0.271567 2.1965,2.196501 m -1.87923,0.949201 -2.87413,-2.874136 m -2.55686,0.271566 3.55177,3.551772 m -1.87923,0.949202 -4.17563,-4.175631 m -2.4788,0.349627 4.77521,4.775205 m -1.87923,0.949202 -5.37478,-5.374779 m -2.46134,0.367086 5.9569,5.956895 m -1.87923,0.949202 -6.45462,-6.454623 m -2.37695,0.451474 6.95235,6.95235 m -1.87923,0.949202 -7.45008,-7.450078 m -2.37695,0.451474 7.94781,7.947806 m -1.87923,0.949202 -8.44553,-8.445534 m -2.37696,0.451473 8.94326,8.943262 m -1.90047,0.927951 -9.41974,-9.419739 m -2.26924,0.559183 9.76055,9.760551 m -1.92844,0.899995 -10.0943,-10.094306 m -2.26219,0.566241 10.42806,10.428061 m -1.92843,0.899994 -10.76182,-10.761815 m -2.26218,0.56624 11.09557,11.09557 m -1.92843,0.899995 -11.42933,-11.429325 m -2.26219,0.56624 11.76308,11.76308 m -1.92843,0.899995 -12.04669,-12.04669 m -2.16663,0.661798 12.28489,12.284887 m -1.92843,0.899995 -12.52309,-12.523085 m -2.16663,0.661798 12.76128,12.761282 m -1.92843,0.899995 -12.99948,-12.99948 m -2.16663,0.661798 13.23768,13.237675 m -1.97009,0.85834 -13.43422,-13.434218 m -2.16421,0.664214 13.62694,13.626944 m -1.97149,0.85693 -13.74128,-13.741279 m -2.08583,0.742596 13.85561,13.855613 m -1.97149,0.85694 -13.96995,-13.969958 m -2.08584,0.742595 14.0843,14.084293 m -1.9715,0.85694 -14.19863,-14.198637 m -2.08583,0.742595 14.31297,14.312972 m -1.97149,0.85693 -14.42731,-14.427307 m -2.04751,0.780915 14.50333,14.503332 m -1.9715,0.85693 -14.54846,-14.548456 m -2.01662,0.811807 14.59359,14.593589 m -1.97149,0.85693 -14.63872,-14.638712 m -2.01662,0.811807 14.65589,14.655885 m -2.01244,0.81599 -14.66007,-14.660068 m -2.01662,0.811806 14.66425,14.664252 m -2.01244,0.81599 -14.65669,-14.6567 m -1.95667,0.87176 14.60093,14.60093 m -2.01244,0.81599 -14.54517,-14.54517 m -1.95667,0.87176 14.4894,14.4894 m -2.01243,0.81599 -14.43364,-14.43364 m -1.95667,0.87176 14.37787,14.37787 m -2.01244,0.81599 -14.3221,-14.3221 m -1.95374,0.87468 14.2634,14.26341 m -2.01243,0.81598 -14.15521,-14.1552 m -1.90424,0.92418 14.04701,14.04702 m -2.05535,0.77307 -13.89591,-13.8959 m -1.90424,0.92418 13.74477,13.74477 m -2.05537,0.77305 -13.59365,-13.59364 m -1.90424,0.92419 13.44251,13.44251 m -2.05537,0.77305 -13.28057,-13.28057 m -1.85801,0.97042 13.0832,13.0832 m -2.05538,0.77305 -12.88582,-12.88583 m -1.858011,0.97042 12.688461,12.68846 m -2.05538,0.77305 -12.491088,-12.49109 m -1.858008,0.97042 12.293726,12.29372 m -2.05538,0.77305 -12.096353,-12.09635 m -1.82394,1.00449 11.847703,11.8477 m -2.10622,0.72221 -11.558414,-11.55842 m -1.816931,1.0115 11.26913,11.26913 m -2.10622,0.72221 -10.979842,-10.97984 m -1.816931,1.01149 10.690554,10.69056 m -2.106219,0.7222 -10.401266,-10.40126 m -1.767904,1.06052 10.06295,10.06295 m -2.106218,0.72221 -9.721624,-9.72162 m -1.764893,1.06353 9.380297,9.3803 m -2.106219,0.72221 -9.038971,-9.03898 m -1.764892,1.06354 8.689082,8.68908 m -2.17676,0.65167 -8.277215,-8.27722 m -1.764892,1.06354 7.865347,7.86535 m -2.176761,0.65166 -7.453479,-7.45348 m -1.764893,1.06354 7.041612,7.04161 m -2.176761,0.65167 -6.622739,-6.62274 m -1.705692,1.12273 6.151671,6.15167 m -2.17676,0.65167 -5.680604,-5.6806 m -1.705693,1.12273 5.209536,5.20954 m -2.240793,0.58763 -4.674435,-4.67444 m -1.705693,1.12274 4.120138,4.12014 m -2.25999,0.56843 -3.565841,-3.56584 m -1.680017,1.14841 2.948133,2.94814 m -2.348898,0.47953 -2.259101,-2.2591 m -1.626141,1.20228 1.536344,1.53635"
           style="fill:#000000;fill-opacity:1;stroke:none;stroke-width:0.53149611;stroke-miterlimit:4;stroke-dasharray:none;stroke-opacity:0.15686275"
           inkscape:connector-curvature="0" />
      </g>
    </g>
    <g
       id="g6565"
       style="fill:#000000;fill-opacity:1;stroke:none;stroke-width:0.53149611;stroke-miterlimit:4;stroke-dasharray:none;stroke-opacity:0.15686275"
       transform="matrix(0.78962783,0,0,0.76687504,-21.855406,787.33315)">
      <g
         id="g6567"
         style="fill:#000000;fill-opacity:1;stroke:none;stroke-width:0.53149611;stroke-miterlimit:4;stroke-dasharray:none;stroke-opacity:0.15686275">
        <path
           style="fill:#000000;fill-opacity:1;stroke:none;stroke-width:0.53149611;stroke-miterlimit:4;stroke-dasharray:none;stroke-opacity:0.15686275"
           id="path6569"
           d="m 233.68,111.526 c -0.154,-0.453 -0.616,-0.731 -1.081,-0.669 -95.768,12.883 -167.857,65.731 -168.574,66.263 -0.382,0.283 -0.512,0.797 -0.31,1.228 0.167,0.357 0.524,0.575 0.905,0.575 0.078,0 0.157,-0.009 0.236,-0.028 91.123,-22.149 167.612,-65.742 168.374,-66.18 0.416,-0.238 0.603,-0.736 0.45,-1.189 z"
           inkscape:connector-curvature="0" />
        <path
           id="path6571"
           d="m 233.67653,111.72769 -0.814,-0.81399 m -2.51971,0.30871 1.97948,1.97948 m -1.84095,0.98748 -2.57272,-2.57273 m -2.4342,0.39424 3.16597,3.16596 m -1.84095,0.98748 -3.75921,-3.7592 m -2.43419,0.39423 4.35245,4.35245 m -1.84095,0.98748 -4.94569,-4.94569 m -2.43419,0.39424 5.53893,5.53893 m -1.84095,0.98747 -6.06118,-6.06118 m -2.32807,0.50036 6.50399,6.50398 m -1.88579,0.94265 -6.94627,-6.94627 m -2.32806,0.50036 7.38855,7.38855 m -1.88579,0.94264 -7.83083,-7.83083 m -2.32806,0.50036 8.27311,8.27311 m -1.88579,0.94264 -8.71539,-8.71539 m -2.29607,0.53236 9.12567,9.12568 m -1.88578,0.94264 -9.47612,-9.47613 m -2.23624,0.5922 9.79929,9.79929 m -1.92927,0.89916 -10.10625,-10.10626 m -2.23623,0.5922 10.41321,10.41321 m -1.92927,0.89916 -10.72017,-10.72018 m -2.23624,0.5922 11.02714,11.02714 m -1.92927,0.89916 -11.33105,-11.33106 m -2.15599,0.67244 11.55778,11.55777 m -1.92928,0.89916 -11.78448,-11.78449 m -2.15599,0.67245 12.0112,12.0112 m -1.92926,0.89915 -12.23792,-12.23791 m -2.15599,0.67244 12.46464,12.46463 m -1.97527,0.85316 -12.64535,-12.64535 m -2.15599,0.67244 12.82028,12.82028 m -1.98106,0.84737 -12.93791,-12.93791 m -2.08527,0.74316 13.04213,13.04212 m -1.98106,0.84737 -13.14633,-13.14633 m -2.08526,0.74317 13.25053,13.25053 m -1.98106,0.84737 -13.35474,-13.35474 m -2.08526,0.74317 13.45895,13.45894 m -1.98106,0.84737 -13.56315,-13.56315 m -2.03897,0.78946 13.62106,13.62106 m -1.98106,0.84737 -13.66247,-13.66247 m -2.02246,0.80596 13.70387,13.70388 m -1.99417,0.83425 -13.73217,-13.73217 m -2.02246,0.80596 13.72861,13.72861 m -2.02603,0.8024 -13.72505,-13.72505 m -2.02246,0.80597 13.72148,13.72148 m -2.02602,0.8024 -13.66787,-13.66786 m -1.96633,0.86209 13.60817,13.60817 m -2.02603,0.8024 -13.54848,-13.54848 m -1.96633,0.8621 13.47291,13.4729 m -2.06058,0.76786 -13.37866,-13.37867 m -1.96634,0.8621 13.28442,13.28442 m -2.06057,0.76785 -13.1727,-13.1727 m -1.91586,0.91257 13.02798,13.02798 m -2.06058,0.76785 -12.88326,-12.88326 m -1.91586,0.91257 12.73855,12.73854 m -2.07436,0.75407 -12.58004,-12.58005 m -1.91586,0.91257 12.39691,12.39691 m -2.09901,0.72943 -12.20585,-12.20585 m -1.87023,0.95819 11.97708,11.97708 m -2.099,0.72943 -11.74831,-11.74832 m -1.87024,0.9582 11.51955,11.51955 m -2.099,0.72942 -11.29078,-11.29078 m -1.87024,0.95819 11.05972,11.05972 m -2.14199,0.68644 -10.76949,-10.76949 m -1.828791,0.99963 10.456291,10.4563 m -2.14199,0.68643 -10.143092,-10.14309 m -1.828791,0.99963 9.829903,9.8299 m -2.14199,0.68644 -9.516705,-9.5167 m -1.816141,1.01228 9.190856,9.19086 m -2.14199,0.68644 -8.823885,-8.82389 m -1.775018,1.05341 8.427398,8.4274 m -2.190404,0.63802 -8.012012,-8.01201 m -1.775018,1.05341 7.596626,7.59663 m -2.190405,0.63802 -7.181239,-7.18124 m -1.775018,1.05341 6.765853,6.76585 m -2.190404,0.63802 -6.350467,-6.35046 m -1.775018,1.05341 5.935081,5.93508 m -2.195459,0.63297 -5.47328,-5.47328 m -1.712049,1.11637 4.939984,4.93999 m -2.245343,0.58308 -4.406689,-4.40669 m -1.712049,1.11638 3.873393,3.87339 m -2.245344,0.58309 -3.340097,-3.3401 m -1.711133,1.11729 2.805887,2.80589 m -2.245345,0.58308 -2.22247,-2.22247 m -1.661927,1.1665 1.639053,1.63906"
           style="fill:#000000;fill-opacity:1;stroke:none;stroke-width:0.53149611;stroke-miterlimit:4;stroke-dasharray:none;stroke-opacity:0.15686275"
           inkscape:connector-curvature="0" />
      </g>
    </g>
    <g
       id="g6573"
       style="fill:#000000;fill-opacity:1;stroke:none;stroke-width:0.53149611;stroke-miterlimit:4;stroke-dasharray:none;stroke-opacity:0.15686275"
       transform="matrix(0.78962783,0,0,0.76687504,-21.855406,787.33315)">
      <g
         id="g6575"
         style="fill:#000000;fill-opacity:1;stroke:none;stroke-width:0.53149611;stroke-miterlimit:4;stroke-dasharray:none;stroke-opacity:0.15686275">
        <path
           style="fill:#000000;fill-opacity:1;stroke:none;stroke-width:0.53149611;stroke-miterlimit:4;stroke-dasharray:none;stroke-opacity:0.15686275"
           id="path6577"
           d="m 214.833,151.986 c -71.861,12.356 -113.435,44.23 -113.846,44.551 -0.363,0.282 -0.486,0.775 -0.3,1.195 0.163,0.366 0.524,0.594 0.914,0.594 0.058,0 0.116,-0.005 0.175,-0.016 1.198,-0.213 2.709,-0.442 4.507,-0.716 16.795,-2.555 61.408,-9.34 109.304,-43.812 0.378,-0.271 0.519,-0.769 0.338,-1.198 -0.179,-0.428 -0.625,-0.679 -1.092,-0.598 z"
           inkscape:connector-curvature="0" />
        <path
           id="path6579"
           d="m 215.89492,153.34305 -1.30928,-1.30928 m -2.37062,0.45781 2.13856,2.13856 m -1.67596,1.15247 -2.83322,-2.83322 m -2.37062,0.45781 3.52787,3.52787 m -1.67597,1.15246 -4.22251,-4.22252 m -2.37062,0.45781 4.91717,4.91717 m -1.7013,1.12712 -5.54022,-5.54021 m -2.28964,0.53878 6.0912,6.0912 m -1.73866,1.08977 -6.64219,-6.64219 m -2.28965,0.53878 7.19317,7.19317 m -1.73866,1.08977 -7.74415,-7.74416 m -2.27777,0.55066 8.26279,8.2628 m -1.80079,1.02763 -8.67739,-8.67739 m -2.21538,0.61304 9.09197,9.09198 m -1.8008,1.02762 -9.50656,-9.50655 m -2.21538,0.61304 9.92114,9.92114 m -1.83231,0.99611 -10.30422,-10.30421 m -2.15374,0.67468 10.59565,10.59566 m -1.8623,0.96612 -10.88039,-10.88038 m -2.14703,0.68139 11.16511,11.16511 m -1.86231,0.96612 -11.44983,-11.44983 m -2.14703,0.68139 11.67658,11.67658 m -1.9231,0.90533 -11.84818,-11.84818 m -2.08392,0.74451 12.00901,12.00901 m -1.92309,0.90533 -12.16983,-12.16982 m -2.08391,0.74451 12.29143,12.29143 m -1.98305,0.84537 -12.39229,-12.39228 m -2.02697,0.80146 12.43621,12.4362 m -1.98306,0.84538 -12.4786,-12.4786 m -2.02544,0.80298 12.46769,12.46769 m -2.06991,0.75852 -12.42323,-12.42323 m -1.99646,0.83196 12.34978,12.34979 m -2.06991,0.75852 -12.22667,-12.22668 m -1.94681,0.88162 12.10358,12.10358 m -2.06991,0.75851 -11.98047,-11.98046 m -1.9468,0.88162 11.85736,11.85736 m -2.10518,0.72325 -11.69898,-11.69898 m -1.94681,0.88162 11.46335,11.46335 m -2.18243,0.646 -11.22772,-11.22772 m -1.94352,0.8849 10.98881,10.98881 m -2.18243,0.646 -10.65884,-10.65884 m -1.85247,0.97596 10.32888,10.32888 m -2.18845,0.63997 -9.99289,-9.99289 m -1.85246,0.97597 9.5585,9.5585 m -2.28684,0.54159 -9.12413,-9.12413 m -1.85246,0.97596 8.68975,8.68975 m -2.28685,0.54158 -8.24837,-8.24837 m -1.76994,1.05849 7.73147,7.73147 m -2.36383,0.4646 -7.13758,-7.13759 m -1.76994,1.05849 6.53018,6.53019 m -2.37733,0.45109 -5.92279,-5.92279 m -1.76994,1.05848 5.31539,5.3154 m -2.42108,0.40734 -4.5957,-4.5957 m -1.68147,1.14696 3.83707,3.83707 m -2.44009,0.38834 -3.07845,-3.07845 m -1.68147,1.14695 2.31947,2.31947 m -2.44069,0.38774 -1.50231,-1.5023"
           style="fill:#000000;fill-opacity:1;stroke:none;stroke-width:0.53149611;stroke-miterlimit:4;stroke-dasharray:none;stroke-opacity:0.15686275"
           inkscape:connector-curvature="0" />
      </g>
    </g>
    <g
       id="g6581"
       style="fill:#000000;fill-opacity:1;stroke:none;stroke-width:0.53149611;stroke-miterlimit:4;stroke-dasharray:none;stroke-opacity:0.15686275"
       transform="matrix(0.78962783,0,0,0.76687504,-21.855406,787.33315)">
      <g
         id="g6583"
         style="fill:#000000;fill-opacity:1;stroke:none;stroke-width:0.53149611;stroke-miterlimit:4;stroke-dasharray:none;stroke-opacity:0.15686275">
        <path
           style="fill:#000000;fill-opacity:1;stroke:none;stroke-width:0.53149611;stroke-miterlimit:4;stroke-dasharray:none;stroke-opacity:0.15686275"
           id="path6585"
           d="m 63.941,65.803 c 0.029,0 0.06,-10e-4 0.089,-0.004 39.656,-3.546 95.132,-35.891 95.688,-36.217 0.396,-0.232 0.583,-0.705 0.453,-1.146 -0.13,-0.439 -0.514,-0.717 -1.002,-0.716 -37.467,1.612 -69.726,13.833 -95.879,36.324 -0.33,0.283 -0.438,0.747 -0.27,1.147 0.157,0.374 0.522,0.612 0.921,0.612 z"
           inkscape:connector-curvature="0" />
        <path
           id="path6587"
           d="m 159.85555,29.421438 -1.62646,-1.626463 m -2.61948,0.208949 2.47733,2.477321 m -1.82324,1.005194 -3.27356,-3.273565 m -2.61948,0.20895 4.06981,4.069808 m -1.82324,1.005194 -4.86605,-4.866052 m -2.60388,0.224546 5.6467,5.646699 m -1.8516,0.976827 -6.23928,-6.239276 m -2.44417,0.38425 6.81477,6.814774 m -1.86868,0.959747 -7.39027,-7.390272 m -2.44418,0.38425 7.96577,7.96577 m -1.86868,0.959747 -8.54127,-8.541268 m -2.3382,0.490222 9.00937,9.009375 m -1.91729,0.91113 -9.37202,-9.372015 m -2.27994,0.548489 9.73466,9.734656 m -1.9173,0.91113 -10.09729,-10.097296 m -2.27994,0.548489 10.45994,10.459937 m -1.9173,0.91113 -10.81752,-10.81752 m -2.12535,0.703077 11.02557,11.025574 m -1.92944,0.898979 -11.22148,-11.221477 m -2.12535,0.703077 11.36482,11.364821 m -1.98201,0.84642 -11.50816,-11.508164 m -2.12535,0.703076 11.6515,11.651508 m -1.982,0.84642 -11.75736,-11.75736 m -1.97922,0.84921 11.75457,11.75457 m -1.98201,0.84642 -11.75178,-11.751781 m -1.97922,0.84921 11.749,11.748991 m -2.04015,0.788277 -11.688063,-11.688058 m -1.979218,0.84921 11.595121,11.59512 M 106.10584,54.867687 94.648309,43.410152 M 92.807801,44.39807 104.03369,55.623958 M 101.96153,56.38023 90.967293,45.385989 m -1.84051,0.987918 10.762595,10.762595 M 97.817223,57.892773 87.286275,47.361825 m -1.84051,0.987918 10.299302,10.299302 m -2.160446,0.667981 -9.948461,-9.948461 m -1.708335,1.120092 9.491299,9.491299 m -2.165496,0.662931 -9.034138,-9.034138 m -1.708335,1.120092 8.559614,8.559614 M 84.821827,61.86794 76.80282,53.848933 m -1.708335,1.120092 7.4784,7.4784 m -2.248943,0.579485 -6.937793,-6.937793 m -1.58224,1.246187 6.202277,6.202277 m -2.35721,0.471217 -5.426989,-5.426989 m -1.581922,1.246505 4.6517,4.6517 m -2.400538,0.427889 -3.833083,-3.833083 m -1.581922,1.246505 2.911694,2.911694 M 65.884604,65.558135 63.8943,63.567831"
           style="fill:#000000;fill-opacity:1;stroke:none;stroke-width:0.53149611;stroke-miterlimit:4;stroke-dasharray:none;stroke-opacity:0.15686275"
           inkscape:connector-curvature="0" />
      </g>
    </g>
    <g
       transform="matrix(4.2508191,0,0,4.2508191,-49.692736,185.99768)"
       id="g3767"
       style="display:inline;fill:#000000">
      <path
         d="m 63.810992,156.0784 c 0,-1.34752 -0.337553,-2.45383 -1.011311,-3.31759 -0.673759,-0.86443 -1.605566,-1.29631 -2.794076,-1.29631 -1.173687,0 -2.087304,0.43188 -2.741523,1.29631 -0.654219,0.86376 -0.980992,1.97007 -0.980992,3.31759 l 0,3.13904 c 0,1.37177 0.328794,2.48954 0.987056,3.35397 0.658262,0.86376 1.577942,1.29631 2.75904,1.29631 1.189184,0 2.116275,-0.43255 2.782622,-1.29631 0.665674,-0.86443 0.999184,-1.9822 0.999184,-3.35397 l 0,-3.13904 z m 3.460423,3.13904 c 0,2.13312 -0.669716,3.89095 -2.010495,5.27418 -1.339432,1.38323 -3.083792,2.07518 -5.231734,2.07518 -2.14053,0 -3.876805,-0.69397 -5.208825,-2.08057 -1.331347,-1.38794 -1.997694,-3.14376 -1.997694,-5.26879 l 0,-3.11546 c 0,-2.11627 0.664326,-3.87074 1.99163,-5.26138 1.327977,-1.39198 3.058863,-2.0873 5.191308,-2.0873 2.147941,0 3.896344,0.69532 5.243861,2.0873 1.348191,1.39064 2.021949,3.14511 2.021949,5.26138 l 0,3.11546 z"
         style="fill:#000000;fill-opacity:1;fill-rule:nonzero;stroke:none"
         id="path5851"
         inkscape:connector-curvature="0" />
      <path
         d="m 77.768436,159.99064 c 0,-1.21277 -0.202128,-2.19578 -0.606383,-2.94904 -0.404255,-0.75326 -1.022765,-1.12989 -1.854856,-1.12989 -0.52351,0 -0.969539,0.10712 -1.338084,0.32138 -0.36922,0.21358 -0.65961,0.51879 -0.874539,0.91564 l 0,5.63599 c 0.214929,0.36517 0.505319,0.64276 0.874539,0.83276 0.368545,0.19067 0.822659,0.28567 1.361665,0.28567 0.840177,0 1.456666,-0.32946 1.848793,-0.98705 0.392801,-0.65826 0.588865,-1.54965 0.588865,-2.6755 l 0,-0.24996 z m 3.471877,0.24996 c 0,1.90202 -0.439291,3.4328 -1.319893,4.59032 -0.879254,1.15684 -2.108863,1.73628 -3.685458,1.73628 -0.674432,0 -1.27273,-0.12532 -1.795566,-0.37529 -0.524184,-0.24929 -0.972233,-0.61581 -1.344822,-1.10025 l 0,6.17163 -3.459749,0 0,-17.81282 3.126913,0 0.202127,1.52202 c 0.381347,-0.56259 0.838829,-0.99716 1.373793,-1.30238 0.534965,-0.30521 1.159539,-0.45815 1.872375,-0.45815 1.594112,0 2.831133,0.62255 3.710387,1.86766 0.880602,1.2451 1.319893,2.88166 1.319893,4.91102 l 0,0.24996 z"
         style="fill:#000000;fill-opacity:1;fill-rule:nonzero;stroke:none"
         id="path5855"
         inkscape:connector-curvature="0" />
      <path
         d="m 88.61042,155.88819 c -0.69734,0 -1.234325,0.23918 -1.61163,0.7189 -0.375957,0.47972 -0.603687,1.11642 -0.683191,1.90876 l 0.02358,0.0593 4.233223,0 0,-0.26075 c 0,-0.75393 -0.153617,-1.34549 -0.462872,-1.77804 -0.309255,-0.43256 -0.809183,-0.64816 -1.499112,-0.64816 m 0.226383,10.67907 c -1.918864,0 -3.416629,-0.58886 -4.495316,-1.76592 -1.078687,-1.1784 -1.61702,-2.69436 -1.61702,-4.54854 l 0,-0.47635 c 0,-1.92628 0.522837,-3.50422 1.569857,-4.73248 1.045673,-1.22893 2.484821,-1.83936 4.316096,-1.83195 1.72819,0 3.054147,0.52958 3.977869,1.58805 0.923049,1.05847 1.385247,2.48347 1.385247,4.27432 l 0,1.79624 -7.670065,0 -0.03571,0.0714 c 0.05525,0.87993 0.323404,1.59344 0.80312,2.14053 0.479716,0.54642 1.190531,0.82064 2.134467,0.82064 0.776843,0 1.437126,-0.0795 1.979502,-0.23784 0.543049,-0.15833 1.10429,-0.40088 1.683048,-0.72564 l 0.939219,2.14054 c -0.515425,0.42042 -1.212765,0.7728 -2.092693,1.05847 -0.879929,0.28567 -1.839361,0.42851 -2.877622,0.42851"
         style="fill:#000000;fill-opacity:1;fill-rule:nonzero;stroke:none"
         id="path5859"
         inkscape:connector-curvature="0" />
      <path
         d="m 99.049767,153.45047 0.154291,1.84273 c 0.427162,-0.65759 0.954712,-1.16897 1.581312,-1.53347 0.62659,-0.36451 1.32798,-0.54777 2.10415,-0.54777 1.30035,0 2.31503,0.41908 3.04538,1.25521 0.72901,0.83614 1.09351,2.15805 1.09351,3.96574 l 0,7.88432 -3.48467,0 0,-7.87219 c 0,-0.91968 -0.16036,-1.57188 -0.48174,-1.95659 -0.32071,-0.38472 -0.80245,-0.57674 -1.44454,-0.57674 -0.51475,0 -0.96886,0.0977 -1.36099,0.29174 -0.392129,0.19404 -0.715533,0.46152 -0.96954,0.80244 l 0,9.31134 -3.472551,0 0,-12.86676 3.235388,0 z"
         style="fill:#000000;fill-opacity:1;fill-rule:nonzero;stroke:none"
         id="path5863"
         inkscape:connector-curvature="0" />
      <path
         d="m 119.87901,159.12277 -6.64595,0 0,7.19439 -3.47323,0 0,-17.31491 11.33262,0 0,2.67616 -7.85939,0 0,4.76819 6.64595,0 0,2.67617 z"
         style="fill:#000000;fill-opacity:1;fill-rule:nonzero;stroke:none"
         id="path5867"
         inkscape:connector-curvature="0" />
      <path
         d="m 125.83234,163.99836 c 0.60301,0 1.14202,-0.15092 1.61702,-0.45209 0.47635,-0.30117 0.80177,-0.65018 0.9756,-1.04702 l 0,-1.81915 -1.95053,0 c -0.73709,0 -1.29361,0.18326 -1.66957,0.54777 -0.37798,0.3645 -0.56596,0.81255 -0.56596,1.34347 0,0.43592 0.14082,0.78291 0.42245,1.04028 0.28163,0.25805 0.67241,0.38674 1.17099,0.38674 m 3.17542,2.3184 c -0.12666,-0.29308 -0.23581,-0.60234 -0.3261,-0.92776 -0.0923,-0.32475 -0.15698,-0.65759 -0.19741,-0.99851 -0.35709,0.62659 -0.82805,1.14539 -1.41489,1.5584 -0.58684,0.41167 -1.28418,0.61851 -2.09269,0.61851 -1.34819,0 -2.38713,-0.34698 -3.11614,-1.04096 -0.729,-0.69397 -1.09351,-1.63925 -1.09351,-2.83584 0,-1.26128 0.48578,-2.23823 1.45734,-2.93153 0.97089,-0.69397 2.3878,-1.04095 4.25007,-1.04095 l 1.95053,0 0,-1.0221 c 0,-0.61851 -0.16237,-1.09822 -0.48713,-1.43914 -0.32475,-0.34093 -0.80918,-0.51139 -1.45127,-0.51139 -0.56326,0 -0.99649,0.13678 -1.3017,0.40965 -0.30521,0.27422 -0.45816,0.64815 -0.45816,1.12383 l -3.34117,0 -0.0236,-0.0707 c -0.0566,-1.0861 0.41706,-2.02329 1.42029,-2.81226 1.00255,-0.78898 2.31301,-1.1838 3.9307,-1.1838 1.54628,0 2.7961,0.38876 3.75149,1.1656 0.95539,0.77685 1.43308,1.89057 1.43308,3.34185 l 0,5.31528 c 0,0.60301 0.0458,1.16964 0.13678,1.70056 0.0909,0.5316 0.23581,1.05848 0.43457,1.58131 l -3.4611,0 z"
         style="fill:#000000;fill-opacity:1;fill-rule:nonzero;stroke:none"
         id="path5871"
         inkscape:connector-curvature="0" />
      <path
         d="m 142.52625,159.99064 c 0,-1.25252 -0.18528,-2.24564 -0.55383,-2.97869 -0.36855,-0.73372 -0.99649,-1.10024 -1.8845,-1.10024 -0.53968,0 -0.99514,0.11319 -1.36706,0.3389 -0.37259,0.22571 -0.66634,0.54911 -0.8806,0.96954 l 0,5.44666 c 0.21426,0.38808 0.50936,0.68521 0.88532,0.89138 0.37663,0.20617 0.83883,0.30926 1.38592,0.30926 0.8961,0 1.52269,-0.31532 1.87911,-0.94529 0.35642,-0.63064 0.53564,-1.52404 0.53564,-2.68156 l 0,-0.24996 z m 3.45975,0.24996 c 0,1.91887 -0.42784,3.45234 -1.28418,4.60177 -0.85568,1.14944 -2.0927,1.72483 -3.70972,1.72483 -0.75393,0 -1.4095,-0.15969 -1.96872,-0.47568 -0.55787,-0.31734 -1.03152,-0.78088 -1.42163,-1.39198 l -0.28365,1.61769 -2.93894,0 0,-18.55126 3.4611,0 0,7.05155 c 0.37259,-0.51475 0.81862,-0.91092 1.33808,-1.18851 0.5188,-0.27758 1.11575,-0.41705 1.78951,-0.41705 1.63319,0 2.87829,0.61649 3.73397,1.85014 0.85634,1.2323 1.28418,2.8756 1.28418,4.92854 l 0,0.24996 z"
         style="fill:#000000;fill-opacity:1;fill-rule:nonzero;stroke:none"
         id="path5875"
         inkscape:connector-curvature="0" />
      <path
         d="m 81.798184,173.19011 0,2.54546 1.82858,0 c 0.432553,0 0.768085,-0.10645 1.007943,-0.32004 0.23851,-0.21358 0.358439,-0.51542 0.358439,-0.90687 0,-0.38809 -0.12195,-0.70071 -0.365851,-0.93855 -0.2439,-0.23716 -0.572694,-0.36383 -0.986382,-0.38 l -0.06266,0 -1.78007,0 z m 0,-0.74113 1.534822,0 c 0.353049,0 0.64007,-0.0964 0.861736,-0.29039 0.220993,-0.19405 0.33149,-0.4649 0.33149,-0.81121 0,-0.37865 -0.119929,-0.66163 -0.35844,-0.84961 -0.239184,-0.1873 -0.583475,-0.28096 -1.032198,-0.28096 l -1.33741,0 0,2.23217 z m -0.947978,4.02772 0,-7.00641 2.285388,0 c 0.731028,0 1.304396,0.15833 1.71741,0.47433 0.413688,0.31599 0.621206,0.78964 0.621206,1.42163 0,0.30184 -0.09365,0.57269 -0.278936,0.8112 -0.185958,0.23919 -0.433227,0.4211 -0.741808,0.54642 0.459503,0.0633 0.822659,0.26276 1.090814,0.59628 0.267482,0.33351 0.40156,0.72631 0.40156,1.1784 0,0.64209 -0.208191,1.13191 -0.625247,1.47014 -0.417731,0.3389 -0.981666,0.50801 -1.693829,0.50801 l -2.776558,0 z"
         style="fill:#000000;fill-opacity:1;fill-rule:nonzero;stroke:none"
         id="path5879"
         inkscape:connector-curvature="0" />
      <path
         d="m 89.448374,172.10778 -0.48578,-0.029 c -0.250638,0 -0.46085,0.0593 -0.632659,0.17787 -0.171808,0.11858 -0.303865,0.28567 -0.396844,0.5006 l 0,3.71915 -0.947978,0 0,-5.20613 0.846915,0 0.09096,0.76067 c 0.147553,-0.27018 0.330142,-0.47971 0.546418,-0.63064 0.216277,-0.15024 0.465567,-0.22638 0.747872,-0.22638 0.07075,0 0.13812,0.006 0.202127,0.0175 0.06468,0.0108 0.117234,0.0229 0.159007,0.035 l -0.130035,0.88128 z"
         style="fill:#000000;fill-opacity:1;fill-rule:nonzero;stroke:none"
         id="path5883"
         inkscape:connector-curvature="0" />
      <path
         d="m 93.740955,175.70686 c -0.163723,0.27894 -0.373936,0.49386 -0.630638,0.64479 -0.256702,0.15092 -0.553155,0.22638 -0.890035,0.22638 -0.567978,0 -1.010637,-0.18192 -1.328651,-0.5444 -0.316666,-0.36248 -0.476347,-0.92709 -0.476347,-1.69315 l 0,-3.07032 0.948652,0 0,3.07975 c 0,0.55518 0.08152,0.93652 0.245248,1.14539 0.163723,0.20819 0.418404,0.31195 0.765389,0.31195 0.336879,0 0.615141,-0.0674 0.834787,-0.20348 0.218971,-0.13609 0.385389,-0.33014 0.497233,-0.58077 l 0,-3.75284 0.947978,0 0,5.20681 -0.850956,0 -0.06266,-0.77011 z"
         style="fill:#000000;fill-opacity:1;fill-rule:nonzero;stroke:none"
         id="path5887"
         inkscape:connector-curvature="0" />
      <path
         d="m 99.062568,175.0765 c 0,-0.20887 -0.07883,-0.37865 -0.23851,-0.51004 -0.158334,-0.13138 -0.45883,-0.24726 -0.901489,-0.34631 -0.613794,-0.13205 -1.084077,-0.31599 -1.412871,-0.55383 -0.328121,-0.23716 -0.493192,-0.5545 -0.493192,-0.95269 0,-0.42312 0.180568,-0.7856 0.541028,-1.08745 0.361135,-0.30117 0.828723,-0.45209 1.402765,-0.45209 0.590213,0 1.068581,0.16036 1.434432,0.48107 0.365177,0.3207 0.540354,0.69464 0.524184,1.12113 l -0.0088,0.029 -0.905531,0 c 0,-0.22436 -0.09837,-0.42851 -0.29578,-0.6111 -0.196738,-0.18326 -0.446702,-0.27422 -0.748546,-0.27422 -0.33351,0 -0.582801,0.0755 -0.747871,0.22571 -0.165071,0.15092 -0.247944,0.33082 -0.247944,0.53901 0,0.20549 0.07142,0.3645 0.214256,0.47635 0.142836,0.11251 0.437269,0.2156 0.883297,0.3079 0.638049,0.13475 1.123155,0.3261 1.453297,0.57337 0.330141,0.2466 0.495217,0.56933 0.495217,0.96684 0,0.4622 -0.186636,0.83883 -0.560572,1.13057 -0.373262,0.29241 -0.862411,0.43862 -1.465424,0.43862 -0.663652,0 -1.186489,-0.16844 -1.56851,-0.50532 -0.381347,-0.33688 -0.563262,-0.72968 -0.543723,-1.17908 l 0.0094,-0.029 0.904857,0 c 0.01617,0.33688 0.140816,0.5828 0.375284,0.73844 0.233794,0.15564 0.508687,0.23312 0.822659,0.23312 0.336879,0 0.600992,-0.0714 0.791666,-0.21358 0.190673,-0.14284 0.286347,-0.32543 0.286347,-0.54642"
         style="fill:#000000;fill-opacity:1;fill-rule:nonzero;stroke:none"
         id="path5891"
         inkscape:connector-curvature="0" />
      <path
         d="m 104.21581,175.0765 c 0,-0.20887 -0.0788,-0.37865 -0.23851,-0.51004 -0.15766,-0.13138 -0.45883,-0.24726 -0.90082,-0.34631 -0.61379,-0.13205 -1.08407,-0.31599 -1.41287,-0.55383 -0.32812,-0.23716 -0.49319,-0.5545 -0.49319,-0.95269 0,-0.42312 0.18057,-0.7856 0.54103,-1.08745 0.36046,-0.30117 0.82872,-0.45209 1.40277,-0.45209 0.59021,0 1.06858,0.16036 1.43443,0.48107 0.36517,0.3207 0.54035,0.69464 0.52351,1.12113 l -0.009,0.029 -0.90486,0 c 0,-0.22436 -0.0984,-0.42851 -0.29578,-0.6111 -0.19674,-0.18326 -0.44737,-0.27422 -0.74854,-0.27422 -0.33352,0 -0.58281,0.0755 -0.74788,0.22571 -0.16507,0.15092 -0.24794,0.33082 -0.24794,0.53901 0,0.20549 0.0707,0.3645 0.21426,0.47635 0.14216,0.11251 0.43726,0.2156 0.88329,0.3079 0.63805,0.13475 1.12248,0.3261 1.45263,0.57337 0.33014,0.2466 0.49588,0.56933 0.49588,0.96684 0,0.4622 -0.18663,0.83883 -0.56057,1.13057 -0.37393,0.29241 -0.86241,0.43862 -1.46609,0.43862 -0.66298,0 -1.18649,-0.16844 -1.56851,-0.50532 -0.38135,-0.33688 -0.56259,-0.72968 -0.54305,-1.17908 l 0.009,-0.029 0.90486,0 c 0.0155,0.33688 0.14081,0.5828 0.37528,0.73844 0.2338,0.15564 0.50802,0.23312 0.82199,0.23312 0.33688,0 0.60166,-0.0714 0.79234,-0.21358 0.19067,-0.14284 0.28567,-0.32543 0.28567,-0.54642"
         style="fill:#000000;fill-opacity:1;fill-rule:nonzero;stroke:none"
         id="path5895"
         inkscape:connector-curvature="0" />
      <path
         d="m 108.34911,171.92027 c -0.33014,0 -0.60369,0.12667 -0.81996,0.38202 -0.21695,0.25468 -0.34901,0.58213 -0.39752,0.97965 l 0.009,0.0242 2.34872,0 0,-0.0775 c 0,-0.37865 -0.093,-0.69128 -0.27893,-0.93787 -0.18663,-0.24727 -0.47366,-0.37057 -0.86174,-0.37057 m 0.14957,4.65769 c -0.74787,0 -1.33067,-0.23918 -1.74975,-0.71688 -0.4184,-0.47769 -0.62794,-1.10698 -0.62794,-1.88652 l 0,-0.21223 c 0,-0.7472 0.21628,-1.36504 0.64748,-1.85486 0.43188,-0.48848 0.95809,-0.73305 1.58064,-0.73305 0.69599,0 1.21883,0.21628 1.56581,0.64883 0.34901,0.43323 0.52284,1.00929 0.52284,1.72819 l 0,0.49993 -3.32971,0 -0.0142,0.0242 c 0,0.52284 0.11521,0.94663 0.34564,1.27273 0.2311,0.32543 0.58482,0.48848 1.05914,0.48848 0.32004,0 0.60167,-0.0458 0.84422,-0.13745 0.24188,-0.091 0.45007,-0.21695 0.62323,-0.3773 l 0.36989,0.61581 c -0.18528,0.17922 -0.43053,0.33082 -0.73574,0.45479 -0.30521,0.1233 -0.67241,0.18528 -1.1016,0.18528"
         style="fill:#000000;fill-opacity:1;fill-rule:nonzero;stroke:none"
         id="path5899"
         inkscape:connector-curvature="0" />
      <path
         inkscape:connector-curvature="0"
         id="path5901"
         style="fill:#000000;fill-opacity:1;fill-rule:nonzero;stroke:none"
         d="m 112.52608,176.4765 -0.9473,0 0,-7.50634 0.9473,0 0,7.50634 z" />
      <path
         d="m 117.01061,175.0765 c 0,-0.20887 -0.0788,-0.37865 -0.23851,-0.51004 -0.15833,-0.13138 -0.45883,-0.24726 -0.90149,-0.34631 -0.61312,-0.13205 -1.08408,-0.31599 -1.41287,-0.55383 -0.32812,-0.23716 -0.49319,-0.5545 -0.49319,-0.95269 0,-0.42312 0.18124,-0.7856 0.5417,-1.08745 0.36046,-0.30117 0.82805,-0.45209 1.40277,-0.45209 0.58953,0 1.0679,0.16036 1.43375,0.48107 0.36518,0.3207 0.53968,0.69464 0.52419,1.12113 l -0.009,0.029 -0.90485,0 c 0,-0.22436 -0.0984,-0.42851 -0.29578,-0.6111 -0.19674,-0.18326 -0.4467,-0.27422 -0.74787,-0.27422 -0.33419,0 -0.58281,0.0755 -0.74855,0.22571 -0.16507,0.15092 -0.24727,0.33082 -0.24727,0.53901 0,0.20549 0.0707,0.3645 0.21358,0.47635 0.14284,0.11251 0.43794,0.2156 0.8833,0.3079 0.63805,0.13475 1.12315,0.3261 1.4533,0.57337 0.33014,0.2466 0.49588,0.56933 0.49588,0.96684 0,0.4622 -0.1873,0.83883 -0.56124,1.13057 -0.37326,0.29241 -0.86241,0.43862 -1.46542,0.43862 -0.66366,0 -1.18649,-0.16844 -1.56851,-0.50532 -0.38135,-0.33688 -0.56326,-0.72968 -0.54305,-1.17908 l 0.009,-0.029 0.90485,0 c 0.0162,0.33688 0.14149,0.5828 0.37596,0.73844 0.2338,0.15564 0.50802,0.23312 0.82199,0.23312 0.33688,0 0.60099,-0.0714 0.79166,-0.21358 0.19068,-0.14284 0.28635,-0.32543 0.28635,-0.54642"
         style="fill:#000000;fill-opacity:1;fill-rule:nonzero;stroke:none"
         id="path5905"
         inkscape:connector-curvature="0" />
    </g>
  </g>
</svg>
